<?xml version="1.0" encoding="utf-8"?>
<!-- Generator: Adobe Illustrator 25.4.1, SVG Export Plug-In . SVG Version: 6.00 Build 0)  -->
<svg version="1.1" id="圖層_1" xmlns="http://www.w3.org/2000/svg" xmlns:xlink="http://www.w3.org/1999/xlink" x="0px" y="0px"
	 viewBox="0 0 43.3 43.3" style="enable-background:new 0 0 43.3 43.3;" xml:space="preserve">
<style type="text/css">
	.st0{fill-rule:evenodd;clip-rule:evenodd;}
</style>
<path class="st0" d="M42.4,43.3c-0.2,0-0.5,0-0.8-0.3c-0.7-0.6-1.3-1.2-1.9-1.9c-0.2-0.2-0.4-0.4-0.7-0.7l-1.7-1.7
	c-2.5-2.5-4.9-4.9-7.3-7.4c-0.3-0.3-0.7-0.7-1.4-0.7c-0.5,0-0.9,0.3-1.3,0.5c-3,2.1-6.6,3.3-10.2,3.3c-7.5,0-13.9-4.7-16.3-11.9
	C-0.6,18.2-0.2,13.5,2,9.2C4.2,5,8.1,1.9,12.6,0.7C14.2,0.2,15.8,0,17.3,0c8.8,0,16,6.5,17.1,15.4c0.5,4.1-0.5,8.1-3,11.7
	c-0.2,0.2-1.2,1.7-1.2,1.7l0.7,0.8c0.2,0.2,0.4,0.4,0.6,0.6l2.9,2.9c2.7,2.7,5.5,5.4,8.2,8.2c0.4,0.4,0.6,0.9,0.6,1.2
	C43.2,43.1,42.8,43.3,42.4,43.3z M17.2,2C13.1,2,9.3,3.6,6.4,6.6C3.6,9.5,2,13.3,2,17.3c0.1,8.5,6.7,15.2,15.2,15.2h0.1
	c4.1,0,8.1-1.7,11-4.7c2.8-2.9,4.4-6.7,4.3-10.6C32.4,8.7,25.7,2,17.2,2L17.2,2z"/>
</svg>
