<?xml version="1.0" encoding="utf-8"?>
<!-- Generator: Adobe Illustrator 25.4.1, SVG Export Plug-In . SVG Version: 6.00 Build 0)  -->
<svg version="1.1" id="圖層_1" xmlns="http://www.w3.org/2000/svg" xmlns:xlink="http://www.w3.org/1999/xlink" x="0px" y="0px"
	 viewBox="0 0 79.7 75.9" style="enable-background:new 0 0 79.7 75.9;" xml:space="preserve">
<style type="text/css">
	.st0{stroke:#040000;stroke-width:3;stroke-miterlimit:10;}
</style>
<path class="st0" d="M71.7,59.5h-8.5c-0.8,0-1.5-0.7-1.5-1.5c0-0.8,0.7-1.5,1.5-1.5h8.5c2,0,3.5-1.6,3.5-3.5V30.1
	c0-2-1.6-3.5-3.5-3.5H8c-2,0-3.5,1.6-3.5,3.5V53c0,2,1.6,3.5,3.5,3.5h9.5c0.8,0,1.5,0.7,1.5,1.5c0,0.8-0.7,1.5-1.5,1.5H8
	c-3.6,0-6.5-2.9-6.5-6.5V30.1c0-3.6,2.9-6.5,6.5-6.5h63.6c3.6,0,6.5,2.9,6.5,6.5V53C78.2,56.6,75.3,59.5,71.7,59.5z"/>
<polygon class="st0" points="63.6,25.7 60.6,25.7 60.6,4.5 19.1,4.5 19.1,25.7 16.1,25.7 16.1,1.5 63.6,1.5 "/>
<path class="st0" d="M63.6,74.4H16.1V45.7h47.5V74.4z M19.1,71.4h41.5V48.7H19.1V71.4z"/>
<rect x="24.4" y="55.1" class="st0" width="30.9" height="2.5"/>
<rect x="24.4" y="62.4" class="st0" width="16.6" height="2.5"/>
<rect x="10.7" y="45.4" class="st0" width="58.3" height="2.5"/>
</svg>
