<?xml version="1.0" encoding="utf-8"?>
<!-- Generator: Adobe Illustrator 25.4.1, SVG Export Plug-In . SVG Version: 6.00 Build 0)  -->
<svg version="1.1" id="圖層_1" xmlns="http://www.w3.org/2000/svg" xmlns:xlink="http://www.w3.org/1999/xlink" x="0px" y="0px"
	 viewBox="0 0 50 50" style="enable-background:new 0 0 50 50;" xml:space="preserve">
<style type="text/css">
	.st0{fill:#040000;}
</style>
<path class="st0" d="M39,46.7h8.5c0-24.3-19.8-44.1-44.1-44.1v8.5C23,11.1,39,27.1,39,46.7z"/>
<path class="st0" d="M9.3,46.8c3.2,0,5.9-2.6,5.9-5.8c0-3.2-2.6-5.9-5.9-5.9c-3.2,0-5.9,2.6-5.9,5.9C3.4,44.1,6,46.8,9.3,46.8z"/>
<path class="st0" d="M24,46.7L24,46.7h8.5c0-16.1-13.1-29.1-29.1-29.1v8.5c5.5,0,10.7,2.2,14.6,6.1C21.9,36,24,41.2,24,46.7z"/>
</svg>
