<?xml version="1.0" encoding="utf-8"?>
<!-- Generator: Adobe Illustrator 25.4.1, SVG Export Plug-In . SVG Version: 6.00 Build 0)  -->
<svg version="1.1" id="Capa_1" xmlns="http://www.w3.org/2000/svg" xmlns:xlink="http://www.w3.org/1999/xlink" x="0px" y="0px"
	 viewBox="0 0 512 512" style="enable-background:new 0 0 512 512;" xml:space="preserve">
<g>
	<path d="M356,512H156v-20c0-55.2,44.9-100,100-100c55.2,0,100,44.9,100,100V512z M199.4,472h113.2c-8.3-23.3-30.5-40-56.6-40
		C229.9,432,207.7,448.7,199.4,472z"/>
</g>
<g>
	<path d="M256,392c-33.1,0-60-26.9-60-60s26.9-60,60-60s60,26.9,60,60S289.1,392,256,392z M256,311.9c-11,0-20,9-20,20s9,20,20,20
		s20-9,20-20S267,311.9,256,311.9z"/>
</g>
<path d="M191.1,199.6l7.8-70.7l-47.8-52.7l69.7-14.5L256,0l35.3,61.8L361,76.3L313.2,129l7.7,70.7L256,170.4L191.1,199.6z
	 M256,137.1l28.5,12.9l-3.4-31.1l21.1-23.1l-30.6-6.4L256,62.1l-15.5,27.1l-30.6,6.4l21.1,23.1l-3.4,31.1L256,137.1z"/>
<path d="M49.1,344.6l7.8-70.7L9.1,221.2l69.7-14.5L114,145l35.3,61.8l69.7,14.5L171.2,274l7.7,70.7L114,315.4L49.1,344.6z
	 M114,282.1l28.5,12.9l-3.4-31.1l21.1-23.1l-30.6-6.4L114,207.1l-15.5,27.1l-30.6,6.4L89,263.7l-3.4,31.1L114,282.1z"/>
<path d="M332.1,344.6l7.8-70.7l-47.8-52.7l69.7-14.5L397,145l35.3,61.8l69.7,14.5L454.2,274l7.7,70.7L397,315.4L332.1,344.6z
	 M397,282.1l28.5,12.9l-3.4-31.1l21.1-23.1l-30.6-6.4L397,207.1l-15.5,27.1l-30.6,6.4l21.1,23.1l-3.4,31.1L397,282.1z"/>
</svg>
