<svg id="Capa_1" enable-background="new 0 0 512 512" height="512" viewBox="0 0 512 512" width="512" xmlns="http://www.w3.org/2000/svg"><g><path d="m412 192c-55.141 0-100 44.86-100 100v20h-112v40h272v120h-232v40h272v-220c0-55.14-44.859-100-100-100zm-60 120v-20c0-26.073 16.722-48.304 40-56.56v36.56h40v-36.56c23.278 8.256 40 30.487 40 56.56v20z"/><path d="m472 132c0-33.084-26.916-60-60-60s-60 26.916-60 60 26.916 60 60 60 60-26.916 60-60zm-60 20c-11.028 0-20-8.972-20-20s8.972-20 20-20 20 8.972 20 20-8.972 20-20 20z"/><path d="m160 332c0-33.084-26.916-60-60-60s-60 26.916-60 60 26.916 60 60 60 60-26.916 60-60zm-60 20c-11.028 0-20-8.972-20-20s8.972-20 20-20 20 8.972 20 20-8.972 20-20 20z"/><path d="m100 392c-55.14 0-100 44.86-100 100v20h200v-20c0-55.14-44.86-100-100-100zm-56.573 80c8.254-23.281 30.498-40 56.573-40s48.318 16.719 56.573 40z"/><path d="m280 140v20h40v-160h-200v120h140c11.028 0 20 8.972 20 20zm-120-100h120v43.427c-6.258-2.219-12.991-3.427-20-3.427h-100z"/><path d="m40 260c0-11.028 8.972-20 20-20h140v-80h-40v40h-100c-7.011 0-13.74 1.22-20 3.44v-43.44h40v-40h-80v160h40z"/></g></svg>