<svg id="Capa_1" enable-background="new 0 0 511.7 511.7" height="512" viewBox="0 0 511.7 511.7" width="512" xmlns="http://www.w3.org/2000/svg"><g><path d="m471.7 320.05v-167.679l39.7-15.762-255.7-101.518-255.7 101.518 119.7 47.523v132.477h272v-132.476l40-15.881v151.798c-23.278 8.256-40 30.487-40 56.56v100h40v-40h40v40h40v-100c0-26.073-16.722-48.304-40-56.56zm-120-43.441h-192v-76.596l96 38.114 96-38.114zm-96-81.518-147.3-58.481 147.3-58.481 147.3 58.48zm176 201.518v-20c0-11.028 8.972-20 20-20s20 8.972 20 20v20z"/></g></svg>