<?xml version="1.0" encoding="utf-8"?>
<!-- Generator: Adobe Illustrator 25.4.1, SVG Export Plug-In . SVG Version: 6.00 Build 0)  -->
<svg version="1.1" id="圖層_1" xmlns="http://www.w3.org/2000/svg" xmlns:xlink="http://www.w3.org/1999/xlink" x="0px" y="0px"
	 viewBox="0 0 50 50" style="enable-background:new 0 0 50 50;" xml:space="preserve">
<style type="text/css">
	.st0{fill:#FBC95C;}
	.st1{fill:#F9BD53;}
	.st2{fill:#FBD07E;}
	.st3{fill:#2C2C2C;}
	.st4{fill:#70523F;}
	.st5{fill:#EB6468;}
</style>
<g>
	<g>
		<g>
			<g>
				<ellipse transform="matrix(0.2298 -0.9732 0.9732 0.2298 -5.075 43.5874)" class="st0" cx="25" cy="25" rx="24" ry="24"/>
			</g>
			<g>
				<path class="st1" d="M37.6,4.5c2.4,3.7,3.8,8.2,3.8,12.9c0,13.3-10.7,24-24,24c-4.6,0-8.9-1.3-12.6-3.5C9,44.6,16.5,49,25,49
					c13.3,0,24-10.7,24-24C49,16.3,44.4,8.7,37.6,4.5z"/>
			</g>
			<g>
				<path class="st2" d="M4.3,27.5c0-12.3,10-22.3,22.3-22.3c7.2,0,13.6,3.4,17.7,8.7C40.4,7.3,33.1,2.8,24.9,2.8
					c-12.3,0-22.3,10-22.3,22.3c0,5.1,1.7,9.8,4.6,13.6C5.3,35.4,4.3,31.6,4.3,27.5z"/>
			</g>
		</g>
		<g>
			<g>
				<g>
					<ellipse class="st3" cx="16.2" cy="20.5" rx="1.8" ry="3"/>
				</g>
				<g>
					<path class="st3" d="M35.6,20.5c0,1.6-0.8,3-1.8,3c-1,0-1.8-1.3-1.8-3c0-1.6,0.8-3,1.8-3C34.8,17.6,35.6,18.9,35.6,20.5z"/>
				</g>
			</g>
		</g>
		<g>
			
				<rect x="16.5" y="10.7" transform="matrix(0.7071 -0.7071 0.7071 0.7071 -5.0864 16.7312)" class="st3" width="2.3" height="7.6"/>
			
				<rect x="31.2" y="10.7" transform="matrix(0.7071 0.7071 -0.7071 0.7071 19.731 -18.6242)" class="st3" width="2.3" height="7.6"/>
		</g>
	</g>
	<g>
		<g>
			<path class="st4" d="M33.8,36c-0.5-5.3-4.3-9.4-8.9-9.4c-4.6,0-8.3,4.1-8.8,9.4L33.8,36z"/>
		</g>
		<path class="st5" d="M16.2,36c0,0,7.4-7.5,17.7,0L16.2,36z"/>
	</g>
</g>
</svg>
