<?xml version="1.0" encoding="utf-8"?>
<!-- Generator: Adobe Illustrator 25.4.1, SVG Export Plug-In . SVG Version: 6.00 Build 0)  -->
<svg version="1.1" id="圖層_1" xmlns="http://www.w3.org/2000/svg" xmlns:xlink="http://www.w3.org/1999/xlink" x="0px" y="0px"
	 viewBox="0 0 50 50" style="enable-background:new 0 0 50 50;" xml:space="preserve">
<style type="text/css">
	.st0{fill:#FBC95C;}
	.st1{fill:#F9BD53;}
	.st2{fill:#FBD07E;}
	.st3{fill:#644735;}
	.st4{fill:#2C2C2C;}
	.st5{fill:#F2A1A9;}
</style>
<g>
	<g>
		<g>
			<ellipse transform="matrix(0.2298 -0.9732 0.9732 0.2298 -5.0778 43.5896)" class="st0" cx="25" cy="25" rx="24" ry="24"/>
		</g>
		<g>
			<path class="st1" d="M37.6,4.5c2.4,3.7,3.8,8.2,3.8,12.9c0,13.3-10.7,24-24,24c-4.6,0-8.9-1.3-12.6-3.5C9,44.6,16.5,49,25,49
				c13.3,0,24-10.7,24-24C49,16.3,44.4,8.7,37.6,4.5z"/>
		</g>
		<g>
			<path class="st2" d="M4.3,27.5c0-12.3,10-22.3,22.3-22.3c7.2,0,13.6,3.4,17.7,8.7C40.4,7.3,33.1,2.8,24.9,2.8
				c-12.3,0-22.3,10-22.3,22.3c0,5.1,1.7,9.8,4.6,13.6C5.3,35.4,4.3,31.6,4.3,27.5z"/>
		</g>
	</g>
	<path class="st3" d="M15.2,27.5c-0.6-0.6-1.6,0.1-1.3,0.9c1.8,4.4,6.1,7.6,11.2,7.6c5,0,9.3-3,11.1-7.3c0.3-0.8-0.7-1.5-1.3-0.9
		C31.3,31.1,23.9,35.9,15.2,27.5z"/>
	<g>
		<path class="st4" d="M31.2,19.8c0.7,1.7,2.3,2.8,4.1,2.8c1.8,0,3.4-1.1,4.1-2.7c0.1-0.3,0-0.7-0.3-0.9c-0.3-0.2-0.7-0.2-0.9,0.1
			c-1.3,1.3-3.4,2.3-5.9-0.1c-0.1-0.1-0.3-0.2-0.5-0.2c-0.1,0-0.3,0-0.4,0.1C31.2,19.1,31.1,19.4,31.2,19.8z"/>
		<path class="st4" d="M10.6,19.8c0.7,1.7,2.3,2.8,4.1,2.8c1.8,0,3.4-1.1,4.1-2.7c0.1-0.3,0-0.7-0.3-0.9c-0.3-0.2-0.7-0.2-0.9,0.1
			c-1.3,1.3-3.4,2.3-5.9-0.1c-0.1-0.1-0.3-0.2-0.5-0.2c-0.1,0-0.3,0-0.4,0.1C10.6,19.1,10.4,19.4,10.6,19.8z"/>
	</g>
	<g>
		<circle class="st5" cx="7.4" cy="28.3" r="4.2"/>
		<circle class="st5" cx="42.6" cy="28.3" r="4.2"/>
	</g>
</g>
</svg>
