<?xml version="1.0" encoding="utf-8"?>
<!-- Generator: Adobe Illustrator 25.4.1, SVG Export Plug-In . SVG Version: 6.00 Build 0)  -->
<svg version="1.1" id="圖層_1" xmlns="http://www.w3.org/2000/svg" xmlns:xlink="http://www.w3.org/1999/xlink" x="0px" y="0px"
	 viewBox="0 0 50 50" style="enable-background:new 0 0 50 50;" xml:space="preserve">
<style type="text/css">
	.st0{fill:#FBC95C;}
	.st1{fill:#F9BD53;}
	.st2{fill:#FBD07E;}
	.st3{fill:#2C2C2C;}
	.st4{fill:#3F3E40;}
	.st5{fill:#644735;}
</style>
<g>
	<g>
		<g>
			<g>
				<ellipse transform="matrix(0.9239 -0.3827 0.3827 0.9239 -7.6641 11.4701)" class="st0" cx="25" cy="25" rx="24" ry="24"/>
			</g>
			<g>
				<path class="st1" d="M37.6,4.5c2.4,3.7,3.8,8.2,3.8,12.9c0,13.3-10.7,24-24,24c-4.6,0-8.9-1.3-12.6-3.5C9,44.6,16.5,49,25,49
					c13.3,0,24-10.7,24-24C49,16.3,44.4,8.7,37.6,4.5z"/>
			</g>
			<g>
				<path class="st2" d="M4.3,27.5c0-12.3,10-22.3,22.3-22.3c7.2,0,13.6,3.4,17.7,8.7C40.4,7.3,33.1,2.8,24.9,2.8
					c-12.3,0-22.3,10-22.3,22.3c0,5.1,1.7,9.8,4.6,13.6C5.3,35.4,4.3,31.6,4.3,27.5z"/>
			</g>
		</g>
		<g>
			<g>
				<g>
					<path class="st3" d="M17.9,19.2c0,1.6-0.8,3-1.8,3c-1,0-1.8-1.3-1.8-3c0-1.6,0.8-3,1.8-3C17.1,16.2,17.9,17.5,17.9,19.2z"/>
				</g>
				<g>
					<path class="st3" d="M35.6,19.2c0,1.6-0.8,3-1.8,3c-1,0-1.8-1.3-1.8-3c0-1.6,0.8-3,1.8-3C34.8,16.2,35.6,17.5,35.6,19.2z"/>
				</g>
			</g>
		</g>
	</g>
	<g>
		<path class="st4" d="M39.2,14.1c-0.3-0.1-0.5-0.1-0.8-0.2c-0.5-0.2-1-0.3-1.5-0.5c-0.7-0.2-1.4-0.5-2-0.9
			c-0.7-0.3-1.3-0.7-1.8-1.2c-0.6-0.5-1.2-1.1-1.7-1.6c0,0-0.1,0-0.1,0c0,0-0.1,0.1-0.1,0.1c0,0.8,0.4,1.7,0.9,2.4
			c0.5,0.7,1.2,1.3,2,1.7c0.8,0.4,1.6,0.6,2.5,0.7c0,0,0.1,0,0.1,0c1,0.1,1.8-0.1,2.6-0.5C39.2,14.3,39.3,14.3,39.2,14.1
			C39.2,14.2,39.2,14.2,39.2,14.1z"/>
		<path class="st4" d="M10.8,14.1c0.3-0.1,0.5-0.1,0.8-0.2c0.5-0.2,1-0.3,1.5-0.5c0.7-0.2,1.4-0.5,2-0.9c0.7-0.3,1.3-0.7,1.8-1.2
			c0.6-0.5,1.2-1.1,1.7-1.6c0,0,0.1,0,0.1,0c0,0,0.1,0.1,0.1,0.1c0,0.8-0.4,1.7-0.9,2.4c-0.5,0.7-1.2,1.3-2,1.7
			c-0.8,0.4-1.6,0.6-2.5,0.7c0,0-0.1,0-0.1,0c-1,0.1-1.8-0.1-2.6-0.5C10.8,14.3,10.7,14.3,10.8,14.1C10.8,14.2,10.8,14.2,10.8,14.1z
			"/>
	</g>
	<path class="st5" d="M15.9,35.3c-0.3,0-0.4-0.3-0.4-0.5c0-1.1,0.3-2.2,0.8-3.2c0.5-1,1.3-1.9,2.2-2.7c1.8-1.5,4.1-2.3,6.5-2.3
		c2.4,0,4.8,0.8,6.5,2.3c1.8,1.6,2.9,3.8,3,5.9c0,0.2-0.2,0.6-0.4,0.5c-0.2,0-0.4-0.3-0.6-0.5c-0.3-0.2-0.5-0.4-0.8-0.6
		c-0.5-0.4-1.1-0.7-1.7-1c-2.2-1.2-4.6-1.8-7.1-1.6c-1.6,0.1-3.1,0.6-4.5,1.3c-0.8,0.4-1.6,0.9-2.4,1.5
		C16.8,34.7,16.3,35.3,15.9,35.3C15.9,35.3,15.9,35.3,15.9,35.3z"/>
</g>
</svg>
