<?xml version="1.0" encoding="utf-8"?>
<!-- Generator: Adobe Illustrator 25.4.1, SVG Export Plug-In . SVG Version: 6.00 Build 0)  -->
<svg version="1.1" id="圖層_1" xmlns="http://www.w3.org/2000/svg" xmlns:xlink="http://www.w3.org/1999/xlink" x="0px" y="0px"
	 viewBox="0 0 50 50" style="enable-background:new 0 0 50 50;" xml:space="preserve">
<style type="text/css">
	.st0{fill:#FBC95C;}
	.st1{fill:#F9BD53;}
	.st2{fill:#FBD07E;}
	.st3{fill:#2C2C2C;}
	.st4{fill:#70523F;}
	.st5{fill:#EB6468;}
</style>
<g>
	<g>
		<g>
			<circle class="st0" cx="24.8" cy="25.2" r="24"/>
		</g>
		<g>
			<path class="st1" d="M37.4,4.7c2.4,3.7,3.8,8.2,3.8,12.9c0,13.3-10.7,24-24,24c-4.6,0-8.9-1.3-12.6-3.5
				c4.3,6.7,11.7,11.1,20.2,11.1c13.3,0,24-10.7,24-24C48.8,16.5,44.3,8.9,37.4,4.7z"/>
		</g>
		<g>
			<path class="st2" d="M4.1,27.7c0-12.3,10-22.3,22.3-22.3c7.2,0,13.6,3.4,17.7,8.7C40.2,7.4,33,2.9,24.7,2.9
				c-12.3,0-22.3,10-22.3,22.3c0,5.1,1.7,9.8,4.6,13.6C5.2,35.5,4.1,31.7,4.1,27.7z"/>
		</g>
	</g>
	<g>
		<g>
			<g>
				<path class="st3" d="M17.8,19.3c0,1.6-0.8,3-1.8,3s-1.8-1.3-1.8-3c0-1.6,0.8-3,1.8-3S17.8,17.7,17.8,19.3z"/>
			</g>
			<g>
				<path class="st3" d="M35.4,19.3c0,1.6-0.8,3-1.8,3c-1,0-1.8-1.3-1.8-3c0-1.6,0.8-3,1.8-3C34.7,16.4,35.4,17.7,35.4,19.3z"/>
			</g>
		</g>
	</g>
	<path class="st4" d="M8.7,27.4c0.9,8.1,7.8,14.4,16.1,14.4c8.3,0,15.2-6.3,16.1-14.4H8.7z"/>
	<path class="st5" d="M13.7,37.4c2.9,2.7,6.8,4.4,11.1,4.4c4.1,0,7.9-1.5,10.8-4.1l-0.1-0.3C24.6,32.1,13.8,37.3,13.7,37.4z"/>
</g>
</svg>
