<?xml version="1.0" encoding="utf-8"?>
<!-- Generator: Adobe Illustrator 25.4.1, SVG Export Plug-In . SVG Version: 6.00 Build 0)  -->
<svg version="1.1" id="圖層_1" xmlns="http://www.w3.org/2000/svg" xmlns:xlink="http://www.w3.org/1999/xlink" x="0px" y="0px"
	 viewBox="0 0 47 43.2" style="enable-background:new 0 0 47 43.2;" xml:space="preserve">
<style type="text/css">
	.st0{fill:url(#SVGID_1_);}
	.st1{opacity:0.3;fill:#E1EBED;}
	.st2{fill:url(#SVGID_00000121964151667303905870000016144244352268784516_);}
	.st3{opacity:0.5;fill:#E3EEEF;}
	.st4{opacity:0.5;fill:#9AB8D7;}
	.st5{fill:url(#SVGID_00000092445673744238108610000011938831607965285539_);}
	.st6{fill:#231815;}
	.st7{fill:url(#SVGID_00000105412927422100150980000015920973607321271473_);}
	.st8{opacity:0.5;fill:#E5F0F2;}
	.st9{opacity:0.5;fill:#FFFFFF;}
	.st10{opacity:0.5;fill:#9EBEDF;}
	.st11{fill:url(#SVGID_00000116216613727738659420000011645179158820099459_);}
	.st12{fill:url(#SVGID_00000140000141887801824530000003172629221859084974_);}
	.st13{opacity:0.3;fill:url(#SVGID_00000044143735312567220530000006253162433864867239_);}
	.st14{fill:url(#SVGID_00000016787399852708543120000012781933438295476415_);}
	.st15{opacity:0.5;fill:#96B3D0;}
	.st16{fill:url(#SVGID_00000106118752589193086230000004391795739417984686_);}
	.st17{opacity:0.5;fill:#E1EBED;}
	.st18{opacity:0.5;fill:url(#SVGID_00000023971107951197573000000013451464395795518121_);}
	.st19{opacity:0.5;fill-rule:evenodd;clip-rule:evenodd;fill:#FFFFFF;}
	.st20{opacity:0.3;fill:#F3F3F5;}
	.st21{opacity:0.3;fill-rule:evenodd;clip-rule:evenodd;fill:#FFFFFF;}
	.st22{fill:#F3F3F5;}
	.st23{fill:#D7D7D8;}
	.st24{fill:#0B0306;}
	.st25{fill:#F2F2F2;}
	.st26{fill:#C7858D;}
	.st27{fill:#211512;}
	.st28{fill:url(#SVGID_00000128484095161347432460000003628887348549490340_);}
	.st29{fill:url(#SVGID_00000029730941014858561010000005679104569200779686_);}
	.st30{fill:#21679C;}
	.st31{opacity:0.2;fill:#21679C;}
	.st32{fill:#458BBA;}
	.st33{opacity:0.3;}
	.st34{fill:url(#SVGID_00000052817303141187940730000007859954148336593306_);}
	.st35{fill:#1E95D4;}
	.st36{fill:#206394;}
	.st37{fill:url(#SVGID_00000173877903589511675190000008303406565116506526_);}
	.st38{fill:url(#SVGID_00000027585782624826479910000000056743941970567355_);}
	.st39{fill:url(#SVGID_00000150060516637685137200000007036191561935701889_);}
	.st40{fill:url(#SVGID_00000037669217667251673440000006055685810373861786_);}
	.st41{fill:url(#SVGID_00000080926144709981130010000002088569270052813224_);}
	.st42{fill:url(#SVGID_00000044176929999453661450000008233856939895379614_);}
	.st43{fill:url(#SVGID_00000152221947971651744790000005000153646585912213_);}
	.st44{fill:url(#SVGID_00000042017178661699972840000017375021374049647753_);}
	.st45{fill:url(#SVGID_00000093154460801863572030000008341016762328453543_);}
	.st46{fill:url(#SVGID_00000020356827138898594780000005081763948265897916_);}
	.st47{fill:url(#SVGID_00000170265077015525749810000006666720848452131492_);}
	.st48{fill:url(#SVGID_00000010293919965709945170000010964124894365159330_);}
	.st49{fill:url(#SVGID_00000098921406908852629700000001662330746882597777_);}
	.st50{fill:url(#SVGID_00000101065545458345138710000009912770934041127866_);}
	.st51{fill:#043559;}
	.st52{fill:none;}
	.st53{fill:#2EA0D2;}
	.st54{fill:#A7A9AC;}
	.st55{fill:#D5812B;}
	.st56{fill:#ED9027;}
	.st57{opacity:0.3;fill:#F1F2F1;}
	.st58{opacity:0.7;fill:#E6E7E8;}
	.st59{fill:#E6E7E8;}
	.st60{fill:url(#SVGID_00000137096389224126079580000016898912156528975501_);}
</style>
<g>
	<g>
		
			<linearGradient id="SVGID_1_" gradientUnits="userSpaceOnUse" x1="-32.4119" y1="213.0358" x2="-21.4638" y2="213.0358" gradientTransform="matrix(0.9996 -2.710000e-02 2.710000e-02 0.9996 52.9279 -189.6612)">
			<stop  offset="0" style="stop-color:#D3D4E3"/>
			<stop  offset="0.2993" style="stop-color:#D1D1E1"/>
			<stop  offset="0.483" style="stop-color:#C9C9D9"/>
			<stop  offset="0.6355" style="stop-color:#BDBCCD"/>
			<stop  offset="0.7709" style="stop-color:#ABAABC"/>
			<stop  offset="0.8939" style="stop-color:#9394A7"/>
			<stop  offset="1" style="stop-color:#797C91"/>
		</linearGradient>
		<path class="st0" d="M26.5,25.7c0,0,0,0,0.1,0c0.8-0.1,5.3-1.5,8.3-5.6c0.6-0.9,2,0.6,1.7,1.1c0.5,0,0.3,0.4,0.3,0.8
			c0,0,0.4,0.3,0.2,0.5c-0.8,0.5-1.3,0.9-1.3,0.9s1.6-0.4,0.8,0.7c-0.8,1.1-1.8,1.4-2.3,1.8c-0.5,0.4-5.5,2.2-5.9,2.4
			C28,28.4,25.8,28.2,26.5,25.7z"/>
		<path class="st1" d="M26.5,25.7c0,0,0,0,0.1,0c0.8-0.1,5.3-1.5,8.3-5.6c0.6-0.9,2,0.6,1.7,1.1c0.5,0,0.3,0.4,0.3,0.8
			c0,0,0.4,0.3,0.2,0.5c-0.8,0.5-1.3,0.9-1.3,0.9s1.6-0.4,0.8,0.7c-0.8,1.1-1.8,1.4-2.3,1.8c-0.5,0.4-5.5,2.2-5.9,2.4
			C28,28.4,25.8,28.2,26.5,25.7z"/>
	</g>
	
		<linearGradient id="SVGID_00000003818750798784486550000005057425221364141208_" gradientUnits="userSpaceOnUse" x1="1.8291" y1="29.277" x2="8.1665" y2="29.277">
		<stop  offset="0" style="stop-color:#D5D6E6"/>
		<stop  offset="0.3202" style="stop-color:#D2D4E4"/>
		<stop  offset="0.5167" style="stop-color:#CBCCDE"/>
		<stop  offset="0.6799" style="stop-color:#BEC0D4"/>
		<stop  offset="0.8248" style="stop-color:#ACAEC5"/>
		<stop  offset="0.9564" style="stop-color:#9499B3"/>
		<stop  offset="1" style="stop-color:#8B90AC"/>
	</linearGradient>
	<path style="fill:url(#SVGID_00000003818750798784486550000005057425221364141208_);" d="M7.5,32.7c0,0-2.8-1.9-5.7-3.7
		c0.1-0.6,0.8-1.2,0.8-1.2l-0.7-0.2c0,0,1-1.7,1.2-1.7c0.9,0.4,2.1,1.4,2.1,1.4s0.8-0.4,1-0.3c0.3,0.5,1.8,4.5,1.8,4.5L7.5,32.7z"/>
	<path class="st3" d="M7.5,32.7c0,0-2.8-1.9-5.7-3.7c0.1-0.6,0.8-1.2,0.8-1.2l-0.7-0.2c0,0,1-1.7,1.2-1.7c0.9,0.4,2.1,1.4,2.1,1.4
		s0.8-0.4,1-0.3c0.3,0.5,1.8,4.5,1.8,4.5L7.5,32.7z"/>
	<path class="st4" d="M7.8,30.6c-0.2,0-0.3,0-0.4,0.3C6.9,30.9,7,31.3,7,31.4c0,0.1-0.4,0-0.3,0.7c0.5,0.3,0.8,0.6,0.8,0.6l0.7-1.2
		C8.2,31.5,8,31.1,7.8,30.6z"/>
	<path class="st4" d="M3.5,28.3c0,0,2.4,1.3,3.2,3C5.4,29.9,3.5,28.3,3.5,28.3z"/>
	<path class="st4" d="M5.9,28c0.1,0.1,1.4,1.6,1.5,2.8C7.3,28.9,5.9,28,5.9,28z"/>
	<g>
		<g>
			
				<radialGradient id="SVGID_00000177479625045062651870000016334002215388525451_" cx="676.0666" cy="-263.9757" r="2.8439" gradientTransform="matrix(0.7718 -0.6358 0.6358 0.7718 -330.4306 672.0938)" gradientUnits="userSpaceOnUse">
				<stop  offset="0" style="stop-color:#DEAE5F"/>
				<stop  offset="0.2377" style="stop-color:#DDAB5D"/>
				<stop  offset="0.4732" style="stop-color:#DBA158"/>
				<stop  offset="0.708" style="stop-color:#D89250"/>
				<stop  offset="0.941" style="stop-color:#D37C45"/>
				<stop  offset="1" style="stop-color:#D27542"/>
			</radialGradient>
			<path style="fill:url(#SVGID_00000177479625045062651870000016334002215388525451_);" d="M20.3,38.4c0,0.1,0.8,0.6,1.1,1.3
				c0.3,0.7,0.3,0.6,0.2,0.8c-0.2,0.2-0.5,0.7,0.1,0.7c0.6,0,1.3-1,1.9-1.3c0.6-0.2,1.5-0.5,2.2-0.7c0.7-0.1,0.6-0.5,0.4-0.7
				c0.2,0.1,0.8-0.4,0.6-0.7c0.4-0.2,0.4-0.6-0.3-0.6c-0.7,0-1,0-1.3,0.5c-0.4,0-1.5,1.1-1.8,1.5c-0.3,0.4-0.9,1-1.1,0.6
				c-0.2-0.4-0.4-2-0.2-2.4C22.1,37.6,20.5,37.6,20.3,38.4z"/>
			<g>
				<path d="M25.1,37.8C25.1,37.9,25.1,37.9,25.1,37.8c-0.3,0-0.7,0.4-1.1,0.8c-0.3,0.4-0.2,0.8-0.2,0.8s-0.1-0.3,0.5-1
					c0.9-0.8,1.6-0.2,1.9,0.2c0,0,0,0,0,0C25.9,37.9,25.4,37.8,25.1,37.8z"/>
				<path d="M25.5,37.5C25.5,37.5,25.5,37.5,25.5,37.5c0.2,0,1.1,0.1,1.3,0.6c0,0,0-0.1,0-0.1c0.1,0,0.1,0,0.1-0.1
					C26.8,37.7,26.3,37.3,25.5,37.5z"/>
			</g>
			<g>
				<g>
					<g>
						<path class="st6" d="M22.2,39.9C21.9,40,21.7,40,21.5,40c0,0,0,0.1,0,0.1C21.7,40.1,22,40.1,22.2,39.9
							C22.2,39.9,22.2,39.9,22.2,39.9z"/>
					</g>
					<g>
						<path class="st6" d="M22.1,39.3C22.1,39.3,22.1,39.3,22.1,39.3c-0.4,0.2-0.7,0.1-0.8,0.1c0,0,0,0.1,0.1,0.1
							C21.4,39.5,21.8,39.6,22.1,39.3z"/>
					</g>
				</g>
			</g>
		</g>
		
			<linearGradient id="SVGID_00000114067557999470568850000006540803497432866442_" gradientUnits="userSpaceOnUse" x1="48.9973" y1="-11.4887" x2="56.3562" y2="-11.4887" gradientTransform="matrix(0.9979 -6.450000e-02 6.450000e-02 0.9979 -46.5716 45.3613)">
			<stop  offset="0" style="stop-color:#D7D8E9"/>
			<stop  offset="0.3202" style="stop-color:#D5D6E7"/>
			<stop  offset="0.5167" style="stop-color:#CDCFE1"/>
			<stop  offset="0.6799" style="stop-color:#C1C2D7"/>
			<stop  offset="0.8248" style="stop-color:#AFB2C9"/>
			<stop  offset="0.9564" style="stop-color:#979DB8"/>
			<stop  offset="1" style="stop-color:#8D94B1"/>
		</linearGradient>
		<path style="fill:url(#SVGID_00000114067557999470568850000006540803497432866442_);" d="M8.4,34.3c0,0-3.4-2-6.9-3.9
			c0-0.7,0.8-1.4,0.8-1.4l-0.8-0.2c0,0,1-2,1.3-2.1c1,0.4,2.6,1.5,2.6,1.5s0.8-0.5,1.2-0.4c0.4,0.6,2.5,5.1,2.5,5.1L8.4,34.3z"/>
		<path class="st8" d="M8.4,34.3c0,0-3.4-2-6.9-3.9c0-0.7,0.8-1.4,0.8-1.4l-0.8-0.2c0,0,1-2,1.3-2.1c1,0.4,2.6,1.5,2.6,1.5
			s0.8-0.5,1.2-0.4c0.4,0.6,2.5,5.1,2.5,5.1L8.4,34.3z"/>
		<g>
			<path class="st8" d="M2.1,28.9l0.1,0c0,0,0,0,0,0C2.2,28.9,2.2,28.9,2.1,28.9z"/>
			<path class="st9" d="M5.9,28.5c0.1,0,0.7-0.2,1-0.3c-0.1-0.2-0.2-0.4-0.3-0.5c-0.3-0.1-1.1,0.4-1.2,0.4
				C5.7,28.3,5.9,28.5,5.9,28.5z"/>
			<path class="st9" d="M3.8,27.1c-0.3-0.2-0.6-0.3-0.9-0.4c-0.3,0.1-1.3,2.1-1.3,2.1l0.5,0.2c0,0,0.1,0,0.1,0
				C3.1,27.8,3.6,27.3,3.8,27.1z"/>
			<path class="st9" d="M2.9,29.1c-0.1-0.1-0.4-0.1-0.7-0.2c0,0,0,0,0,0l0.1,0c0,0-0.8,0.7-0.8,1.4c0.1,0.1,0.3,0.2,0.4,0.2
				C2.3,29.7,2.7,29.2,2.9,29.1z"/>
		</g>
		<path class="st10" d="M8.6,31.8c-0.2,0-0.4,0.1-0.4,0.4c-0.6-0.1-0.6,0.5-0.5,0.6c0,0.1-0.5,0-0.3,0.8c0.6,0.4,1,0.6,1,0.6
			l0.7-1.4C9.1,32.8,8.9,32.4,8.6,31.8z"/>
		
			<linearGradient id="SVGID_00000047061476462342384290000011924720844717798541_" gradientUnits="userSpaceOnUse" x1="55.517" y1="-8.7653" x2="75.7962" y2="-8.7653" gradientTransform="matrix(0.9979 -6.450000e-02 6.450000e-02 0.9979 -46.5716 45.3613)">
			<stop  offset="0" style="stop-color:#D7D8E9"/>
			<stop  offset="0.3202" style="stop-color:#D5D6E7"/>
			<stop  offset="0.5167" style="stop-color:#CDCFE1"/>
			<stop  offset="0.6799" style="stop-color:#C1C2D7"/>
			<stop  offset="0.8248" style="stop-color:#AFB2C9"/>
			<stop  offset="0.9564" style="stop-color:#979DB8"/>
			<stop  offset="1" style="stop-color:#8D94B1"/>
		</linearGradient>
		<path style="fill:url(#SVGID_00000047061476462342384290000011924720844717798541_);" d="M14.6,27.2l-3,4.6l-3.3,1.4
			c0,0,0.3,5.6,7.5,6.1c7.8,0.3,11.8-5.8,12.6-8.9C29.1,27.3,20,23,14.6,27.2z"/>
		<path class="st8" d="M14.6,27.2l-3,4.6l-3.3,1.4c0,0,0.3,5.6,7.5,6.1c7.8,0.3,11.8-5.8,12.6-8.9C29.1,27.3,20,23,14.6,27.2z"/>
		
			<radialGradient id="SVGID_00000030454564794614681840000012203555950827966105_" cx="57.2285" cy="-1.7283" r="2.7459" gradientTransform="matrix(0.9979 -6.450000e-02 6.450000e-02 0.9979 -46.5716 45.3613)" gradientUnits="userSpaceOnUse">
			<stop  offset="0" style="stop-color:#DEAE5F"/>
			<stop  offset="0.2377" style="stop-color:#DDAB5D"/>
			<stop  offset="0.4732" style="stop-color:#DBA158"/>
			<stop  offset="0.708" style="stop-color:#D89250"/>
			<stop  offset="0.941" style="stop-color:#D37C45"/>
			<stop  offset="1" style="stop-color:#D27542"/>
		</radialGradient>
		<path style="fill:url(#SVGID_00000030454564794614681840000012203555950827966105_);" d="M11.6,37.9c0,0-1.1,0.3-1.2,0.1
			c-0.2-0.1-0.1-0.2,0-0.6c0.1-0.3-0.3-1-0.7-0.6c-0.4,0.3-0.4,0.2-0.3,1c0.1,0.9,0.1,1.2-0.3,1.8c-0.3,0.6-1,1.9-0.6,2.7
			c0.4,0.9,1.9,1.1,2.2,0.2c0.7,1.1,1.4-0.5,1.4-0.5s0.7,0.2,0.6-0.4c-0.1-0.6-0.2-0.9-0.9-0.7c-0.6,0.1-1.3,0.4-1.5-0.1
			c-0.2-0.5-0.3-2,0-2.3c0.3-0.3,2.1-0.5,2.1-0.5S11.9,37.8,11.6,37.9z"/>
		<g>
			<path class="st9" d="M25.7,26.9c-1.6,0.7-3.5,1.9-4.4,3.8c-1.5,3.3-6,7.4-8.7,7.8c0.9,0.4,1.9,0.6,3.2,0.7
				c7.8,0.3,11.8-5.8,12.6-8.9C28.6,29.2,27.5,27.9,25.7,26.9z"/>
		</g>
		<g>
			<path class="st6" d="M10.2,41.7c0,0-0.5-0.1-0.7,0C9.3,41.6,9.3,41,9.3,41s-0.1,0.4,0,0.7c0,0,0,0.2-0.2,0.2
				c-0.2,0,0.2,0.1,0.3-0.1c0.1-0.1,1.3,0,1.2,0.9c0,0,0-0.1,0-0.1c0,0,0,0,0,0C10.9,42.1,10.2,41.7,10.2,41.7z"/>
			<path class="st6" d="M10.9,41.4C10,41.6,10,40.8,10,40.8s-0.1,0.7,0.5,0.7c0.5,0,1.7-0.2,1.5,0.9c0.1-0.1,0.1-0.2,0.1-0.2
				s0,0,0.1,0C12.2,41.8,12.1,41.3,10.9,41.4z"/>
		</g>
		<g>
			
				<linearGradient id="SVGID_00000172431596545660505540000000076556767009042330_" gradientUnits="userSpaceOnUse" x1="55.517" y1="-9.2467" x2="69.6605" y2="-9.2467" gradientTransform="matrix(0.9979 -6.450000e-02 6.450000e-02 0.9979 -46.5716 45.3613)">
				<stop  offset="0" style="stop-color:#D7D8E9"/>
				<stop  offset="0.3202" style="stop-color:#D5D6E7"/>
				<stop  offset="0.5167" style="stop-color:#CDCFE1"/>
				<stop  offset="0.6799" style="stop-color:#C1C2D7"/>
				<stop  offset="0.8248" style="stop-color:#AFB2C9"/>
				<stop  offset="0.9564" style="stop-color:#979DB8"/>
				<stop  offset="1" style="stop-color:#8D94B1"/>
			</linearGradient>
			<path style="opacity:0.3;fill:url(#SVGID_00000172431596545660505540000000076556767009042330_);" d="M9.7,33.7l3.5-1.5l3.1-4.8
				c1.7-1.3,3.7-1.8,5.7-1.8c-2.5-0.4-5.2-0.1-7.4,1.6l-3,4.6l-3.3,1.4c0,0,0.2,3.8,4.4,5.4C9.9,36.7,9.7,33.7,9.7,33.7z"/>
		</g>
		<path class="st10" d="M3.5,29.5c0,0,2.9,1.3,3.9,3.2C5.8,31.1,3.5,29.5,3.5,29.5z"/>
		<path class="st10" d="M6.2,28.9C6.3,29,7.9,30.7,8.1,32C7.9,29.9,6.2,28.9,6.2,28.9z"/>
		<g>
			<path class="st6" d="M10.5,38.1c0.2,0.1,0.1,0.3,0,0.5c0,0,0.1,0,0.1,0C10.7,38.3,10.7,38.1,10.5,38.1z"/>
			<path class="st6" d="M11.1,38.4c0,0,0.1,0,0.1,0c0-0.1-0.1-0.3-0.2-0.4c0,0,0,0-0.1,0C11.1,38.1,11.1,38.3,11.1,38.4z"/>
			<path class="st6" d="M10.2,41.7c0,0-0.5-0.1-0.7,0C9.3,41.6,9.3,41,9.3,41s-0.1,0.4,0,0.7c0,0,0,0.2-0.2,0.2
				c-0.2,0,0.2,0.1,0.3-0.1c0.1-0.1,1.3,0,1.2,0.9c0,0,0-0.1,0-0.1c0,0,0,0,0,0C10.9,42.1,10.2,41.7,10.2,41.7z"/>
			<path class="st6" d="M10.9,41.4C10,41.6,10,40.8,10,40.8s-0.1,0.7,0.5,0.7c0.5,0,1.7-0.2,1.5,0.9c0.1-0.1,0.1-0.2,0.1-0.2
				s0,0,0.1,0C12.2,41.8,12.1,41.3,10.9,41.4z"/>
		</g>
	</g>
	<g>
		
			<linearGradient id="SVGID_00000092429770036944522170000012278846066778543251_" gradientUnits="userSpaceOnUse" x1="-6176.0249" y1="-189.2894" x2="-6141.5601" y2="-165.6971" gradientTransform="matrix(0.9786 -0.2059 0.2059 0.9786 6077.9658 -1068.6422)">
			<stop  offset="0" style="stop-color:#CBCDDD"/>
			<stop  offset="0.1733" style="stop-color:#C6C8D7"/>
			<stop  offset="0.3976" style="stop-color:#B8B9C8"/>
			<stop  offset="0.6499" style="stop-color:#A1A1B1"/>
			<stop  offset="0.921" style="stop-color:#808292"/>
			<stop  offset="1" style="stop-color:#757989"/>
		</linearGradient>
		<path style="fill:url(#SVGID_00000092429770036944522170000012278846066778543251_);" d="M14.9,26.6c-1.3-0.2-10.2-1.8-12.7-11.2
			c-2.1-3.1-1.5,4.5-1.1,5.2c-0.7-0.1-1.2,0-1.2,0.5c0,0,0,0.8,1.1,1.5c1,0.7,1.7,1.3,1.7,1.3s-2.1-0.6-1,0.8c1,1.4,2.4,2.1,3.1,2.6
			c0.7,0.5,5.3,2.3,7.2,2.5c1.8,0.2,3.5-0.2,4.2-1C16.8,28.1,16.7,26.9,14.9,26.6z"/>
		<path class="st9" d="M1.2,20.6c-0.7-0.1-1.2,0-1.2,0.5c0,0,0,0.8,1.1,1.5c1,0.7,1.7,1.3,1.7,1.3s-2.1-0.6-1,0.8
			c1,1.4,2.4,2.1,3.1,2.6c0.3,0.2,1.4,0.7,2.7,1.2c-0.4-0.2-0.6-0.4-0.7-0.5c-0.7-0.5-2.2-1.5-3.2-2.9c-1-1.4,1.2-1,1.2-1
			S4,23.8,3,23c-1-0.7-1.1-1.5-1.1-1.5c0-0.5,0.5-0.6,1.2-0.5c-0.2-0.3-0.5-2.6-0.4-4.2c-0.2-0.4-0.3-0.9-0.4-1.4
			C0.1,12.3,0.8,20,1.2,20.6z"/>
		<path class="st3" d="M14.9,26.6c-1.3-0.2-10.2-1.8-12.7-11.2c-2.1-3.1-1.5,4.5-1.1,5.2c-0.7-0.1-1.2,0-1.2,0.5c0,0,0,0.8,1.1,1.5
			c1,0.7,1.7,1.3,1.7,1.3s-2.1-0.6-1,0.8c1,1.4,2.4,2.1,3.1,2.6c0.7,0.5,5.3,2.3,7.2,2.5c1.8,0.2,3.5-0.2,4.2-1
			C16.8,28.1,16.7,26.9,14.9,26.6z"/>
		<path class="st15" d="M12,29.8c-0.5-0.6-0.8-1.5,0.2-1.9c-0.4-0.9-0.2-1.6,0.1-2c0.2,0.1,0.5,0.1,0.7,0.2c1,0.3,1.7,0.4,2,0.5
			c1.8,0.3,1.9,1.4,1.3,2.1C15.5,29.6,13.8,30,12,29.8z"/>
	</g>
	<g>
		<g>
			
				<linearGradient id="SVGID_00000124883791632467965920000014323367864401506693_" gradientUnits="userSpaceOnUse" x1="1678.0464" y1="-160.7666" x2="1678.0464" y2="-135.3579" gradientTransform="matrix(-0.9857 0.1686 0.1686 0.9857 1698.7422 -120.9078)">
				<stop  offset="0" style="stop-color:#D3D4E3"/>
				<stop  offset="0.3177" style="stop-color:#D1D1E1"/>
				<stop  offset="0.5127" style="stop-color:#C9CADB"/>
				<stop  offset="0.6746" style="stop-color:#BDBED0"/>
				<stop  offset="0.8184" style="stop-color:#ABADC2"/>
				<stop  offset="0.949" style="stop-color:#9398B0"/>
				<stop  offset="1" style="stop-color:#878EA7"/>
			</linearGradient>
			<path style="fill:url(#SVGID_00000124883791632467965920000014323367864401506693_);" d="M8.7,8.7c0.7-1.8-0.2-3.6-0.2-3.6
				c1.1,0.6,6.7-0.7,6.7-0.7l0,0C16,4.2,16.8,4,17.6,3.8c7.7-1.3,14.9,3.2,16.1,10c1.2,6.8-4.1,13.5-11.8,14.8
				c-7.7,1.3-14.9-3.2-16.1-10C5.2,14.9,6.3,11.4,8.7,8.7z"/>
			<g>
				<path class="st17" d="M8.7,8.7c0.7-1.8-0.2-3.6-0.2-3.6c1.1,0.6,6.7-0.7,6.7-0.7l0,0C16,4.2,16.8,4,17.7,3.8
					c7.7-1.3,14.9,3.2,16.1,10c1.2,6.8-4.1,13.5-11.8,14.8c-7.7,1.3-14.9-3.2-16.1-10C5.2,14.9,6.4,11.4,8.7,8.7z"/>
				
					<linearGradient id="SVGID_00000031165054027578903410000004852751893388341926_" gradientUnits="userSpaceOnUse" x1="1675.2787" y1="-159.7131" x2="1686.8271" y2="-159.7131" gradientTransform="matrix(-0.9857 0.1686 0.1686 0.9857 1698.7422 -120.9078)">
					<stop  offset="0" style="stop-color:#E9F0E1"/>
					<stop  offset="0.1724" style="stop-color:#E1E7DD"/>
					<stop  offset="0.4499" style="stop-color:#CBD1D3"/>
					<stop  offset="0.7958" style="stop-color:#A9AFC1"/>
					<stop  offset="0.9934" style="stop-color:#9298B6"/>
				</linearGradient>
				<path style="opacity:0.5;fill:url(#SVGID_00000031165054027578903410000004852751893388341926_);" d="M20.5,4.1
					c0,0-3-0.2-6.3,1.1c0,0-3,1-5.1,0.3c0,0,1.7,1.7,6.1-0.3C15.2,5.2,17.2,4.2,20.5,4.1z"/>
				<path class="st19" d="M20.5,4.1c0,0,8.6-0.5,11.7,6.4c0,0-0.1,0.7-0.8-0.3C31.4,10.2,29.1,4.8,20.5,4.1z"/>
				<path class="st20" d="M28.7,23.2c-0.1-0.2-0.3-0.3-0.5-0.3c-0.4,0-0.9,0.2-1.3,0.4c-1.8,0.7-3.7,1.8-5.7,2.1
					c-2.2,0.4-4.4-0.2-6.6-0.1c-0.4,0-1.2,0-1.4,0.4c-0.2,0.4,0.2,1,0.6,1.3c1.1,1,2.9,1.2,4.3,1.2c1.1,0,2.3,0,3.4-0.2
					c1.7-0.3,3.4-0.8,4.9-1.7c1-0.6,2.2-1.4,2.4-2.5C28.9,23.6,28.8,23.4,28.7,23.2z"/>
				<path class="st19" d="M8.6,19.5c0.2,0.2,0.3,0.6,0.3,0.8c0.2,0.8,0.3,1.6,0.7,2.3c1.3,2.4,3.8,4,6.6,4.7
					c2.1,0.5,4.6,0.4,6.8,0.2c0.2,0,0.4,0,0.5-0.1c-2.6,0.9-5.4,0.7-6.4,0.6c-2.3-0.2-4.3-0.9-6.1-2.4c-1.6-1.4-3.2-3.3-3.7-5.3
					c-0.1-0.4,0.1-1,0.5-1.1C8.2,19.1,8.4,19.3,8.6,19.5z"/>
				<path class="st21" d="M31.2,20.3c0.4,0.1,0.4,0.8,0,1.4c-0.5,0.7-1.2,1.2-1.7,1c-0.4-0.1-0.4-0.8,0-1.4
					C30,20.7,30.7,20.2,31.2,20.3z"/>
			</g>
		</g>
		<g>
			<path class="st22" d="M25.3,7.3c2.8-1,5.3,2.3,6.3,3.9c2.2,3.8,0,6.4-3.8,6.5c-0.5,0-2.4-0.4-2.9-0.5c-0.3,0-0.5,0.2-0.5,0.3
				c-6.3,7.2-12.3,3.7-12.5-2.3c0-1.9,0.5-4.2,4.2-5.4c3.5-1,4.8,0.4,6,0.1C23.5,9.4,22.6,8.3,25.3,7.3z"/>
			<g>
				<path class="st23" d="M16.9,19c-1,0.1-2-0.6-2.1-1.7c-0.1-1.1,0.6-2,1.6-2.1c1-0.1,2,0.6,2.1,1.7C18.7,17.9,18,18.9,16.9,19z"/>
				<path class="st24" d="M16.6,18.8c-0.7,0.1-1.3-0.4-1.4-1.1c-0.1-0.7,0.4-1.3,1.1-1.4c0.7-0.1,1.3,0.4,1.4,1.1
					C17.7,18,17.2,18.7,16.6,18.8z"/>
				<path class="st25" d="M16.3,18.4c-0.2,0-0.4-0.1-0.5-0.4c0-0.2,0.1-0.4,0.4-0.5c0.2,0,0.4,0.1,0.5,0.4
					C16.7,18.1,16.5,18.4,16.3,18.4z"/>
			</g>
			<g>
				<path class="st23" d="M27.4,14.8c-1,0.1-2-0.6-2.1-1.7c-0.1-1.1,0.6-2,1.6-2.1c1-0.1,2,0.6,2.1,1.7
					C29.2,13.7,28.5,14.6,27.4,14.8z"/>
				<path class="st24" d="M26.9,14.3c-0.7,0.1-1.3-0.4-1.4-1.1c-0.1-0.7,0.4-1.3,1.1-1.4c0.7-0.1,1.3,0.4,1.4,1.1
					C28.1,13.6,27.6,14.2,26.9,14.3z"/>
				<path class="st25" d="M26.4,13.8c-0.2,0-0.4-0.1-0.5-0.4c0-0.2,0.1-0.4,0.4-0.5c0.2,0,0.4,0.1,0.5,0.4
					C26.8,13.6,26.7,13.8,26.4,13.8z"/>
			</g>
			<path class="st26" d="M17.7,20.8c0.2,0.3-0.3,0.8-1,1.3c-0.7,0.4-1.5,0.5-1.6,0.2c-0.2-0.3,0.3-0.8,1-1.3
				C16.8,20.6,17.5,20.5,17.7,20.8z"/>
			<path class="st26" d="M33.3,13.1c0.1,0.3-0.4,0.8-1.2,1.1c-0.8,0.3-1.5,0.3-1.6,0c-0.1-0.3,0.4-0.8,1.2-1.1
				C32.4,12.9,33.2,12.8,33.3,13.1z"/>
			<g>
				<path class="st27" d="M23.6,17.6c0,0-0.1,0.2,0.1,0.4c0.3,0.3,1.6,0.2,1.6,0.2c0,0,0.7-1,0.7-1s0.1-0.6-0.5-0.5
					C25,16.9,23.6,17.6,23.6,17.6z"/>
				<g>
					
						<radialGradient id="SVGID_00000000217575640272633390000009437364345917328817_" cx="437.5395" cy="-188.6252" r="2.0795" gradientTransform="matrix(0.467 -0.1706 0.3401 0.9307 -115.7947 266.4843)" gradientUnits="userSpaceOnUse">
						<stop  offset="0" style="stop-color:#D0A45E"/>
						<stop  offset="0.2463" style="stop-color:#CFA15C"/>
						<stop  offset="0.4904" style="stop-color:#CC9757"/>
						<stop  offset="0.7337" style="stop-color:#C8884E"/>
						<stop  offset="0.9752" style="stop-color:#C37243"/>
						<stop  offset="1" style="stop-color:#C26F42"/>
					</radialGradient>
					<path style="fill:url(#SVGID_00000000217575640272633390000009437364345917328817_);" d="M23.5,17.8c0,0-1.1-2.2,0.1-2.5
						C24.9,15,25.5,16,26,17c0,0-0.4-0.1-1.2,0.1C24.2,17.2,23.5,17.8,23.5,17.8z"/>
					
						<linearGradient id="SVGID_00000007413682074946433560000000877458749827969210_" gradientUnits="userSpaceOnUse" x1="-22.2654" y1="-4720.9922" x2="-22.2654" y2="-4717.5083" gradientTransform="matrix(0.9392 -0.3432 -0.2099 -0.5743 -944.5155 -2699.5981)">
						<stop  offset="0" style="stop-color:#C88753"/>
						<stop  offset="8.690143e-02" style="stop-color:#C68250"/>
						<stop  offset="1" style="stop-color:#B55034"/>
					</linearGradient>
					<path style="fill:url(#SVGID_00000007413682074946433560000000877458749827969210_);" d="M25.4,18l-1.8-0.3c0,0,0.6,2,1.8,1.6
						c1.2-0.4,0.8-2.4,0.8-2.4L25.4,18z"/>
				</g>
			</g>
		</g>
		<g>
			<path class="st30" d="M23,3.1c0,0-0.1,1.4-0.8,1.9c-0.8,0.6-1.6,0.8-2.9,0.6c-3.4-0.6-2.7-2.9-2.7-2.9L23,3.1z"/>
			<g>
				<path class="st31" d="M18.2,2.8l-1.6-0.1c0,0-0.7,2.4,2.7,2.9c0.2,0,0.3,0,0.5,0.1C18.5,4.8,18.3,3.3,18.2,2.8z"/>
			</g>
			<path class="st30" d="M16.3,0.7c0.2-0.6,2-0.9,4.2-0.5c2.1,0.4,3.1,1.1,3.3,1.5C24,2,23.3,3.7,23.3,3.7s-0.6,0.6-1.6,0.7
				c-1.9,0.2-3.4,0-5.4-1.2C15.9,3,16,1.5,16.3,0.7z"/>
			<g>
				<path class="st30" d="M22.6,2.1c-2.2,0.2-4,0-6.3-1.4c0,0,0,0,0,0c0,0,0,0,0,0c-0.3,0.8-0.4,2.3,0,2.5c2,1.2,3.5,1.4,5.4,1.2
					c1-0.1,1.6-0.7,1.6-0.7s0.5-1.5,0.5-2C23.5,1.9,23.1,2,22.6,2.1z"/>
				<path class="st32" d="M20.5,0.2c-2.1-0.4-3.9,0-4.2,0.5c0,0,0,0,0,0c2.3,1.4,4.1,1.6,6.3,1.4c0.5-0.1,0.9-0.2,1.2-0.4
					c0,0,0-0.1,0-0.1C23.6,1.3,22.5,0.6,20.5,0.2z"/>
			</g>
			<path class="st30" d="M21.7,4.4c-1.8,0.2-3.3,0-5.2-1c0,0.1,0,0.2,0,0.2c1.8,1,3.3,1.2,5.1,1c0.4,0,0.7-0.2,1-0.3
				c0-0.1,0.1-0.2,0.1-0.2C22.5,4.2,22.1,4.3,21.7,4.4z"/>
			<g class="st33">
				<path class="st30" d="M17.7,0.9c0.2-0.4,1.3-0.8,2.8-0.7c0,0,0,0,0,0c-2.2-0.4-3.9,0-4.2,0.5c-0.3,0.8-0.4,2.3,0,2.5
					c1.5,0.9,2.7,1.2,4,1.3c-0.8-0.2-1.7-0.5-2.6-1.1C17.3,3.1,17.4,1.7,17.7,0.9z"/>
			</g>
		</g>
	</g>
	<g>
		
			<linearGradient id="SVGID_00000091732738811490888320000011149628660347172254_" gradientUnits="userSpaceOnUse" x1="515.5314" y1="-358.2873" x2="519.3038" y2="-358.9377" gradientTransform="matrix(-0.7474 -0.6643 -0.6643 0.7474 177.7215 639.6779)">
			<stop  offset="0" style="stop-color:#21679C"/>
			<stop  offset="0.9908" style="stop-color:#084974"/>
		</linearGradient>
		<path style="fill:url(#SVGID_00000091732738811490888320000011149628660347172254_);" d="M27,27.4c0,0,0.4,0.2,1.1,0.9
			c1.1,0.9,3,2.3,6,1.9c-2,2.1-3.2,2-3.2,2S25.7,29.6,27,27.4z"/>
		<g>
			<path class="st35" d="M31.7,30.1c0.1,0,0.3,0.1,0.4,0.1c-0.2,0.4-0.9,1.4-1.7,1.7c-0.1-0.1-0.3-0.2-0.5-0.3
				C30.7,31.5,31.4,30.6,31.7,30.1z"/>
			<path class="st35" d="M30.4,29.7c0.1,0.1,0.2,0.1,0.4,0.1c-0.3,0.4-0.8,1.1-1.6,1.3c-0.1-0.1-0.3-0.2-0.4-0.3l0,0
				C29.5,30.8,30.1,30.1,30.4,29.7z"/>
			<path class="st35" d="M29.3,29.1c0.1,0.1,0.2,0.1,0.4,0.2c-0.3,0.3-1,0.7-1.8,0.8c-0.1-0.1-0.3-0.3-0.4-0.4
				C28.2,29.8,28.9,29.4,29.3,29.1z"/>
		</g>
		<path class="st36" d="M27.5,28.1c0,0,3.1,6.2,8.1,5.3c0.1,2.7-1.2,2.6-1.2,2.6s-6.4,0.9-8-8.5C26.5,26.2,27.5,28.1,27.5,28.1z"/>
		<g>
			
				<linearGradient id="SVGID_00000156570980162450669240000001674086490551167397_" gradientUnits="userSpaceOnUse" x1="344.3336" y1="-380.8631" x2="346.9202" y2="-380.8631" gradientTransform="matrix(0.9306 -0.3659 0.3659 0.9306 -147.5017 515.5771)">
				<stop  offset="0" style="stop-color:#21679C"/>
				<stop  offset="0.9908" style="stop-color:#084974"/>
			</linearGradient>
			<path style="fill:url(#SVGID_00000156570980162450669240000001674086490551167397_);" d="M35.7,33.4c0.1,2.7-1.2,2.6-1.2,2.6
				s-0.2,0-0.5,0c0.6-0.8,0.8-2,0.8-2.5C35,33.5,35.3,33.4,35.7,33.4z"/>
			
				<linearGradient id="SVGID_00000176003262481167651950000009922564664791144840_" gradientUnits="userSpaceOnUse" x1="341.5098" y1="-382.4143" x2="344.475" y2="-382.4143" gradientTransform="matrix(0.9306 -0.3659 0.3659 0.9306 -147.5017 515.5771)">
				<stop  offset="0" style="stop-color:#21679C"/>
				<stop  offset="0.9908" style="stop-color:#084974"/>
			</linearGradient>
			<path style="fill:url(#SVGID_00000176003262481167651950000009922564664791144840_);" d="M32,32.8c0.3,0.2,0.6,0.3,1,0.4
				c-0.1,0.6-0.5,1.7-1.3,2.3c-0.4-0.2-0.8-0.4-1.2-0.6C31.4,34.4,31.8,33.4,32,32.8z"/>
			
				<linearGradient id="SVGID_00000181057093861893035780000015644655465269331869_" gradientUnits="userSpaceOnUse" x1="340.1163" y1="-386.5967" x2="342.1198" y2="-386.5967" gradientTransform="matrix(0.9306 -0.3659 0.3659 0.9306 -147.5017 515.5771)">
				<stop  offset="0" style="stop-color:#21679C"/>
				<stop  offset="0.9908" style="stop-color:#084974"/>
			</linearGradient>
			<path style="fill:url(#SVGID_00000181057093861893035780000015644655465269331869_);" d="M28.8,30c0.2,0.3,0.5,0.6,0.7,0.8
				c-0.1,0.3-0.2,0.6-0.5,0.8c-0.3,0.2-0.7,0.3-1.1,0.3c-0.2-0.4-0.4-0.8-0.6-1.3C27.9,30.6,28.4,30.3,28.8,30z"/>
			
				<linearGradient id="SVGID_00000163769779070746168560000009255721049347649958_" gradientUnits="userSpaceOnUse" x1="340.6022" y1="-383.7776" x2="343.4536" y2="-383.7776" gradientTransform="matrix(0.9306 -0.3659 0.3659 0.9306 -147.5017 515.5771)">
				<stop  offset="0" style="stop-color:#21679C"/>
				<stop  offset="0.9908" style="stop-color:#084974"/>
			</linearGradient>
			<path style="fill:url(#SVGID_00000163769779070746168560000009255721049347649958_);" d="M30.7,31.9c0.3,0.2,0.6,0.5,1,0.7
				c-0.1,0.5-0.5,1.6-1.6,2c-0.4-0.3-0.8-0.7-1.1-1.1C30,33.3,30.4,32.5,30.7,31.9z"/>
			
				<linearGradient id="SVGID_00000080903570780212619590000016904162300050699429_" gradientUnits="userSpaceOnUse" x1="516.7642" y1="-356.5634" x2="519.9932" y2="-356.5634" gradientTransform="matrix(-0.7474 -0.6643 -0.6643 0.7474 177.7215 639.6779)">
				<stop  offset="0" style="stop-color:#21679C"/>
				<stop  offset="0.9908" style="stop-color:#084974"/>
			</linearGradient>
			<path style="fill:url(#SVGID_00000080903570780212619590000016904162300050699429_);" d="M27.5,28.1c0,0,0.4,0.7,1,1.6
				c-0.3,0.3-0.8,0.6-1.4,0.5c-0.3-0.8-0.5-1.7-0.7-2.7C26.5,26.2,27.5,28.1,27.5,28.1z"/>
			
				<linearGradient id="SVGID_00000165934380996600266030000016166588917397946794_" gradientUnits="userSpaceOnUse" x1="340.2398" y1="-385.1946" x2="342.5974" y2="-385.1946" gradientTransform="matrix(0.9306 -0.3659 0.3659 0.9306 -147.5017 515.5771)">
				<stop  offset="0" style="stop-color:#21679C"/>
				<stop  offset="0.9908" style="stop-color:#084974"/>
			</linearGradient>
			<path style="fill:url(#SVGID_00000165934380996600266030000016166588917397946794_);" d="M29.2,31.9c0.3-0.2,0.5-0.5,0.6-0.8
				c0.2,0.2,0.3,0.3,0.5,0.5c-0.2,0.5-0.6,1.4-1.7,1.6c-0.2-0.3-0.4-0.6-0.6-0.9C28.5,32.3,28.9,32.2,29.2,31.9z"/>
			
				<linearGradient id="SVGID_00000133530181565492935230000006494158804869989009_" gradientUnits="userSpaceOnUse" x1="342.7562" y1="-381.4084" x2="345.6432" y2="-381.4084" gradientTransform="matrix(0.9306 -0.3659 0.3659 0.9306 -147.5017 515.5771)">
				<stop  offset="0" style="stop-color:#21679C"/>
				<stop  offset="0.9908" style="stop-color:#084974"/>
			</linearGradient>
			<path style="fill:url(#SVGID_00000133530181565492935230000006494158804869989009_);" d="M33.3,33.3c0.3,0.1,0.6,0.1,1,0.2
				c0,0.6-0.2,1.8-0.9,2.5c-0.4,0-0.8-0.1-1.3-0.3C32.9,35,33.2,33.9,33.3,33.3z"/>
			<path class="st35" d="M34.3,33.5c0.1,0,0.3,0,0.4,0c0,0.5-0.2,1.7-0.8,2.5c-0.1,0-0.3,0-0.5,0C34.1,35.3,34.3,34,34.3,33.5z"/>
			<path class="st35" d="M33,33.2c0.1,0,0.3,0.1,0.4,0.1c-0.1,0.6-0.5,1.7-1.2,2.4c-0.1,0-0.3-0.1-0.4-0.2
				C32.5,34.9,32.8,33.8,33,33.2z"/>
			<path class="st35" d="M31.6,32.6c0.1,0.1,0.2,0.1,0.4,0.2c-0.1,0.6-0.5,1.6-1.5,2.1c-0.1-0.1-0.2-0.2-0.4-0.3
				C31.2,34.2,31.5,33.1,31.6,32.6z"/>
			<path class="st35" d="M30.3,31.7c0.1,0.1,0.2,0.2,0.3,0.3c-0.2,0.6-0.7,1.4-1.7,1.6c-0.1-0.1-0.2-0.2-0.3-0.3
				C29.8,33,30.2,32.2,30.3,31.7z"/>
			<path class="st35" d="M29,31.6c0.3-0.2,0.4-0.5,0.5-0.8c0.1,0.1,0.2,0.2,0.3,0.3c-0.1,0.3-0.3,0.6-0.6,0.8
				c-0.3,0.3-0.7,0.4-1.2,0.4c-0.1-0.1-0.2-0.3-0.2-0.4C28.3,32,28.7,31.9,29,31.6z"/>
			<path class="st35" d="M28.6,29.7c0.1,0.1,0.2,0.2,0.2,0.3c-0.4,0.3-0.9,0.6-1.5,0.6c0-0.1-0.1-0.3-0.1-0.4
				C27.7,30.3,28.2,29.9,28.6,29.7z"/>
		</g>
	</g>
	<g>
		
			<linearGradient id="SVGID_00000002378556557094280040000014311397849408605583_" gradientUnits="userSpaceOnUse" x1="79.3348" y1="4.1504" x2="96.1387" y2="4.1504" gradientTransform="matrix(1.051 -1.800000e-03 1.700000e-03 1.0387 -71.4955 23.4477)">
			<stop  offset="0" style="stop-color:#206395"/>
			<stop  offset="0.9908" style="stop-color:#02466F"/>
		</linearGradient>
		<path style="fill:url(#SVGID_00000002378556557094280040000014311397849408605583_);" d="M29.5,25.4c0,0-0.6,1.6-1.2,2.2
			c0,0.3,0.8,1.3-2.5,2.5c-0.4,0.1-4.4,1.4-10.8-1c0,0-3-0.6-3.2-1.7c1.4-0.3,7.2-0.8,9.4-1.5C23.5,25.1,25.7,23.9,29.5,25.4z"/>
		<g>
			
				<linearGradient id="SVGID_00000127018052541903324370000013077357982900511377_" gradientUnits="userSpaceOnUse" x1="79.3348" y1="4.557" x2="83.3444" y2="4.557" gradientTransform="matrix(1.051 -1.800000e-03 1.700000e-03 1.0387 -71.4955 23.4477)">
				<stop  offset="0" style="stop-color:#206395"/>
				<stop  offset="0.9908" style="stop-color:#02466F"/>
			</linearGradient>
			<path style="fill:url(#SVGID_00000127018052541903324370000013077357982900511377_);" d="M15.8,28.8c0-0.1,0-0.1,0-0.1l-0.2-0.2
				l0.2-0.2c0.3-0.3,0.4-0.6,0.3-0.9c0-0.2-0.1-0.3-0.2-0.5c-1.7,0.2-3.3,0.4-4,0.5c0.2,1.1,3.2,1.7,3.2,1.7
				c0.1,0.1,0.3,0.1,0.4,0.1C15.6,29.1,15.8,28.9,15.8,28.8z"/>
			
				<linearGradient id="SVGID_00000137090230465578567660000002082228599290473089_" gradientUnits="userSpaceOnUse" x1="83.5049" y1="4.6262" x2="85.6956" y2="4.6262" gradientTransform="matrix(1.051 -1.800000e-03 1.700000e-03 1.0387 -71.4955 23.4477)">
				<stop  offset="0" style="stop-color:#206395"/>
				<stop  offset="0.9908" style="stop-color:#02466F"/>
			</linearGradient>
			<path style="fill:url(#SVGID_00000137090230465578567660000002082228599290473089_);" d="M16.5,28.5c0,0.2,0.1,0.3,0,0.5
				c0,0.2-0.1,0.4-0.3,0.5c0.3,0.1,0.5,0.2,0.8,0.2c0.7-0.4,1.8-1.2,1.4-2.2l-0.1-0.1l0-0.1c0.1-0.3,0.1-0.5,0.1-0.8
				c-0.6,0.1-1.2,0.2-1.8,0.3c0.1,0.2,0.1,0.3,0.1,0.5C16.9,27.6,16.8,28.1,16.5,28.5z"/>
			
				<linearGradient id="SVGID_00000076593545669627205380000016998301481518598578_" gradientUnits="userSpaceOnUse" x1="87.8082" y1="4.3249" x2="91.1867" y2="4.3249" gradientTransform="matrix(1.051 -1.800000e-03 1.700000e-03 1.0387 -71.4955 23.4477)">
				<stop  offset="0" style="stop-color:#206395"/>
				<stop  offset="0.9908" style="stop-color:#02466F"/>
			</linearGradient>
			<path style="fill:url(#SVGID_00000076593545669627205380000016998301481518598578_);" d="M21.7,28.3c0,0.4-0.5,0.6-0.8,0.9
				c0.2,0.6,0,1-0.2,1.3c0.4,0,0.7,0.1,1,0.1c0.8-0.4,2.2-1.3,2.1-1.6l-0.1-0.2c0,0,0.5-0.9,0.5-1.2c0-0.2-0.2-0.5-0.4-0.6l-0.2-0.2
				l0.1-0.2c0-0.1,0.2-0.8-0.2-1.5c-0.7,0.2-1.3,0.5-2,0.7c0,0.6-0.3,1.2-0.5,1.5C21.4,27.5,21.8,27.8,21.7,28.3z"/>
			
				<linearGradient id="SVGID_00000049930819868304140370000009402499736341030549_" gradientUnits="userSpaceOnUse" x1="90.4901" y1="4.1259" x2="93.9073" y2="4.1259" gradientTransform="matrix(1.051 -1.800000e-03 1.700000e-03 1.0387 -71.4955 23.4477)">
				<stop  offset="0" style="stop-color:#206395"/>
				<stop  offset="0.9908" style="stop-color:#02466F"/>
			</linearGradient>
			<path style="fill:url(#SVGID_00000049930819868304140370000009402499736341030549_);" d="M24.6,26.5c0.3,0.3,0.7,0.6,0.7,1
				c0,0.4-0.5,0.8-1,1.2c0.1,0.2,0.3,0.5,0.3,0.7c-0.1,0.4-0.5,0.8-0.9,1c0.6-0.1,1.1-0.1,1.5-0.2c0.6-0.4,1.6-1.2,1.2-1.9l-0.2-0.1
				l0.2-0.3c1.3-1.7,1.1-2.3,0-3.3c-0.7,0-1.3,0.1-1.9,0.2C24.7,25.4,24.7,26.1,24.6,26.5z"/>
			
				<linearGradient id="SVGID_00000167396898809381905240000012548340065556754346_" gradientUnits="userSpaceOnUse" x1="93.2761" y1="3.8811" x2="96.1387" y2="3.8811" gradientTransform="matrix(1.051 -1.800000e-03 1.700000e-03 1.0387 -71.4955 23.4477)">
				<stop  offset="0" style="stop-color:#206395"/>
				<stop  offset="0.9908" style="stop-color:#02466F"/>
			</linearGradient>
			<path style="fill:url(#SVGID_00000167396898809381905240000012548340065556754346_);" d="M26.8,28.2c0.2,0.6,0,1.1-0.3,1.6
				c2.5-1.1,1.8-1.9,1.8-2.2c0.6-0.6,1.2-2.2,1.2-2.2c-0.7-0.3-1.3-0.4-1.9-0.5C28.5,25.7,28.8,26.7,26.8,28.2z"/>
			
				<linearGradient id="SVGID_00000048476983043130505270000018428492448123661187_" gradientUnits="userSpaceOnUse" x1="85.3452" y1="4.668" x2="87.9729" y2="4.668" gradientTransform="matrix(1.051 -1.800000e-03 1.700000e-03 1.0387 -71.4955 23.4477)">
				<stop  offset="0" style="stop-color:#206395"/>
				<stop  offset="0.9908" style="stop-color:#02466F"/>
			</linearGradient>
			<path style="fill:url(#SVGID_00000048476983043130505270000018428492448123661187_);" d="M18.2,30c0.5,0.1,1,0.2,1.5,0.3
				c0.4-0.4,0.9-0.9,0.8-1.1L20.3,29l0.3-0.2c0.2-0.2,0.4-0.4,0.4-0.6c0-0.4-0.2-0.7-0.2-0.7l-0.2-0.2l0.1-0.2c0,0,0.3-0.5,0.2-1.1
				c-0.5,0.1-1,0.2-1.6,0.4c0,0.3-0.2,0.7-0.4,1.1C19.3,28.6,18.8,29.5,18.2,30z"/>
			<path class="st35" d="M26.3,27.9l-0.2,0.3l0.2,0.1c0.4,0.7-0.6,1.5-1.2,1.9c0.4-0.1,0.7-0.2,0.7-0.2c0.3-0.1,0.5-0.2,0.7-0.3
				c0.3-0.5,0.4-1.1,0.3-1.6c2-1.5,1.7-2.4,0.9-3.3c-0.5-0.1-0.9-0.1-1.4-0.1C27.4,25.7,27.6,26.3,26.3,27.9z"/>
			<path class="st35" d="M23.8,26.6l-0.2,0.2L24,27c0.2,0.1,0.4,0.3,0.4,0.6c0,0.3-0.5,1.2-0.5,1.2l0.1,0.2c0.1,0.2-1.3,1.2-2.1,1.6
				c0.7,0,1.3,0,1.8,0c0.4-0.3,1-0.6,1.1-1c0.1-0.2-0.4-0.5-0.4-0.7c0.5-0.4,1.2-0.7,1.2-1.1c0-0.4-0.8-0.8-1.1-1.1
				c0.4-0.3,0.9-0.7,0.1-1.6c-0.3,0.1-0.5,0.1-0.8,0.2C24,25.7,23.9,26.4,23.8,26.6z"/>
			<path class="st35" d="M20.7,27l-0.1,0.2l0.2,0.2c0,0,0.3,0.3,0.2,0.7c0,0.2-0.1,0.4-0.4,0.6L20.3,29l0.1,0.3
				c0.1,0.1-0.4,0.7-0.8,1.1c0.4,0.1,0.8,0.1,1.1,0.1c0.2-0.3,0.3-0.7,0.2-1.3c0.3-0.3,0.7-0.5,0.8-0.9c0-0.4-0.4-0.8-0.5-1
				c0.1-0.3,0.5-0.9,0.5-1.5c-0.1,0-0.3,0.1-0.4,0.1c-0.1,0-0.2,0.1-0.4,0.1C21,26.5,20.7,27,20.7,27z"/>
			<path class="st35" d="M18.4,27.4l0.1,0.1c0.4,1-0.7,1.8-1.4,2.2c0.4,0.1,0.8,0.2,1.1,0.3c0.6-0.5,1.1-1.4,0.7-2.6
				c0.2-0.4,0.4-0.8,0.4-1.1c-0.2,0-0.5,0.1-0.8,0.1c0,0.2,0,0.5-0.1,0.8L18.4,27.4z"/>
			<path class="st35" d="M16.1,27.3c0,0.3-0.1,0.6-0.3,0.9l-0.2,0.2l0.2,0.2c0,0,0,0.1,0,0.1c0,0.1-0.2,0.3-0.3,0.4
				c0.3,0.1,0.5,0.2,0.8,0.3c0.1-0.2,0.2-0.4,0.3-0.5c0-0.2,0-0.3,0-0.5c0.3-0.4,0.4-0.8,0.3-1.3c0-0.2-0.1-0.3-0.1-0.5
				c-0.3,0-0.6,0.1-0.8,0.1C16,27,16.1,27.1,16.1,27.3z"/>
		</g>
		<path class="st51" d="M24.9,26.2c0,0-1.4,1.6-6.2,1.1C18.7,27.3,23.4,27.2,24.9,26.2z"/>
		<g>
			<path class="st51" d="M14.4,28.9c0.4,0.1,0.7,0.2,0.7,0.2c0.2,0.1,0.4,0.1,0.5,0.2c0.7-0.5,2.1-1.2,4.1-1.5
				C17.5,27.7,15.3,28.5,14.4,28.9z"/>
			<path class="st51" d="M19.9,29c4.1,0.6,7.4-0.9,8.4-1.4c0,0,0-0.1,0-0.1c0.1-0.1,0.2-0.3,0.4-0.5C27.6,27.7,24.5,29.1,19.9,29z"
				/>
		</g>
	</g>
	<g>
		<path class="st52" d="M42.2,7.2c-2.7-1.1-5.9,0.1-7,2.9c-1.1,2.7,0.1,5.9,2.9,7c2.7,1.1,5.9-0.1,7-2.9
			C46.2,11.5,44.9,8.3,42.2,7.2z"/>
		<path class="st53" d="M42.2,7.2c-2.7-1.1-5.9,0.1-7,2.9c-1.1,2.7,0.1,5.9,2.9,7c2.7,1.1,5.9-0.1,7-2.9
			C46.2,11.5,44.9,8.3,42.2,7.2z"/>
		<path class="st54" d="M38.4,18.8c-0.3-0.1-0.7-0.2-1-0.3c-0.3-0.1-0.6-0.3-0.9-0.5l-0.7,1.7l1.9,0.8L38.4,18.8z"/>
		<path class="st55" d="M37.6,20.8L35.7,20l-0.6-0.3l-1.5,3.7c-0.4,0.9,0,1.9,0.9,2.2c0.9,0.4,1.9,0,2.2-0.9l1.5-3.7L37.6,20.8z"/>
		<polygon class="st56" points="38.8,20.5 35,18.9 34.7,19.6 35.1,19.8 38.2,21.1 38.5,21.2 		"/>
		<rect x="36.4" y="18.9" transform="matrix(0.3872 -0.922 0.922 0.3872 3.3887 46.3371)" class="st54" width="0.4" height="3.4"/>
		<path class="st54" d="M37.5,18.4c-0.3-0.1-0.6-0.3-0.9-0.5l-0.2,0.5c0.3,0.2,0.6,0.3,0.9,0.5c0.3,0.1,0.6,0.2,1,0.3l0.2-0.5
			C38.1,18.7,37.8,18.6,37.5,18.4z"/>
		<path class="st57" d="M43.9,13.9C43,16,40.6,17,38.4,16.2c-2.1-0.9-3.1-3.4-2.2-5.5c0.9-2.1,3.4-3.1,5.5-2.2
			C43.8,9.3,44.8,11.8,43.9,13.9z"/>
		<path class="st58" d="M44,10.6c-0.2,0.5-0.8,0.7-1.3,0.5c-0.5-0.2-0.7-0.8-0.5-1.3c0.2-0.5,0.8-0.7,1.3-0.5
			C44,9.6,44.2,10.2,44,10.6z"/>
		<path class="st54" d="M42.2,7.2c-2.7-1.1-5.9,0.1-7,2.9c-1.1,2.7,0.1,5.9,2.9,7c2.7,1.1,5.9-0.1,7-2.9
			C46.2,11.5,44.9,8.3,42.2,7.2z M38.1,17c-2.6-1.1-3.8-4-2.7-6.6c1.1-2.6,4-3.8,6.6-2.7c2.6,1.1,3.8,4,2.7,6.6
			C43.6,16.8,40.6,18.1,38.1,17z"/>
		<path class="st59" d="M46.5,14.8c1.5-3.5-0.2-7.5-3.7-9c-3.5-1.5-7.5,0.2-9,3.7c-1.3,3.2-0.1,6.8,2.8,8.5c0.3,0.2,0.6,0.3,0.9,0.5
			c0.3,0.1,0.6,0.2,1,0.3C41.7,19.6,45.1,18,46.5,14.8z M38,17.1c-2.7-1.1-4-4.3-2.9-7c1.1-2.7,4.3-4,7-2.9c2.7,1.1,4,4.3,2.9,7
			C43.9,16.9,40.8,18.2,38,17.1z"/>
	</g>
	<g>
		
			<linearGradient id="SVGID_00000155140652958243769180000007286742573841681592_" gradientUnits="userSpaceOnUse" x1="-874.2393" y1="729.4234" x2="-867.0315" y2="729.4234" gradientTransform="matrix(0.6766 0.7364 -0.7364 0.6766 1162.0836 171.641)">
			<stop  offset="0" style="stop-color:#D3D4E3"/>
			<stop  offset="0.2993" style="stop-color:#D1D1E1"/>
			<stop  offset="0.483" style="stop-color:#C9C9D9"/>
			<stop  offset="0.6355" style="stop-color:#BDBCCD"/>
			<stop  offset="0.7709" style="stop-color:#ABAABC"/>
			<stop  offset="0.8939" style="stop-color:#9394A7"/>
			<stop  offset="1" style="stop-color:#797C91"/>
		</linearGradient>
		<path style="fill:url(#SVGID_00000155140652958243769180000007286742573841681592_);" d="M38.4,21.9c0,0-6.1-0.8-5.7,0.3
			c0.4,1.2,1.6,1.6,1.6,1.6s-2.4-0.5-2.3,0.5c0.1,1,2.8,1.4,2.8,1.4s-2.1,0.2-1.3,0.9c0.8,0.7,2.9,0.6,4.1,0.3
			C38.8,26.8,41.5,23.2,38.4,21.9z"/>
		<path class="st1" d="M38.4,21.9c0,0-6.1-0.8-5.7,0.3c0.4,1.2,1.6,1.6,1.6,1.6s-2.4-0.5-2.3,0.5c0.1,1,2.8,1.4,2.8,1.4
			s-2.1,0.2-1.3,0.9c0.8,0.7,2.9,0.6,4.1,0.3C38.8,26.8,41.5,23.2,38.4,21.9z"/>
		<g>
			<path class="st52" d="M34,23.7C34,23.7,34,23.7,34,23.7c0.2,0.1,0.3,0.1,0.3,0.1S34.2,23.8,34,23.7z"/>
			<path class="st52" d="M34.4,25.7c-0.1,0-0.1,0.1-0.2,0.2c0.3-0.1,0.6-0.1,0.6-0.1S34.6,25.8,34.4,25.7z"/>
			<path class="st1" d="M34.5,21.6c-1.1,0-2,0.2-1.8,0.6c0.3,0.8,0.9,1.2,1.3,1.4C33.6,22.7,34.2,21.9,34.5,21.6z"/>
			<path class="st1" d="M34.2,25.9c-0.5,0.1-1.2,0.4-0.7,0.8c0.2,0.2,0.5,0.3,0.8,0.4C34,26.5,34.1,26.1,34.2,25.9z"/>
			<path class="st1" d="M33.4,23.7c-0.7,0-1.4,0.1-1.3,0.6c0.1,0.5,0.6,0.8,1.2,1C32.8,24.7,33.2,24,33.4,23.7z"/>
		</g>
	</g>
</g>
</svg>
