<?xml version="1.0" encoding="utf-8"?>
<!-- Generator: Adobe Illustrator 25.4.1, SVG Export Plug-In . SVG Version: 6.00 Build 0)  -->
<svg version="1.1" id="圖層_1" xmlns="http://www.w3.org/2000/svg" xmlns:xlink="http://www.w3.org/1999/xlink" x="0px" y="0px"
	 viewBox="0 0 130 90" style="enable-background:new 0 0 130 90;" xml:space="preserve">
<style type="text/css">
	.st0{fill:#F4DF87;}
</style>
<path class="st0" d="M83.1,24.8h-8.6V9.1h2.9c0.8,0,1.4-0.6,1.4-1.4V3.3c0-0.8-0.6-1.4-1.4-1.4H54.4c-0.8,0-1.4,0.6-1.4,1.4v4.3
	c0,0.8,0.6,1.4,1.4,1.4h2.9v15.8h-8.6c-4,0-7.2,3.2-7.2,7.2v44.4c0,4,3.2,7.2,7.2,7.2v2.9c0,0.8,0.6,1.4,1.4,1.4h5.7
	c0.8,0,1.4-0.6,1.4-1.4v-2.9h17.2v2.9c0,0.8,0.6,1.4,1.4,1.4h5.7c0.8,0,1.4-0.6,1.4-1.4v-2.9c4,0,7.2-3.2,7.2-7.2V32
	C90.2,28,87,24.8,83.1,24.8z M55.9,4.8h20.1v1.4H55.9V4.8z M60.2,9.1h11.5v15.8H60.2V9.1z M54.4,85h-2.9v-1.4h2.9V85z M80.2,85h-2.9
	v-1.4h2.9V85z M87.4,76.4c0,2.4-1.9,4.3-4.3,4.3H48.7c-2.4,0-4.3-1.9-4.3-4.3V32c0-2.4,1.9-4.3,4.3-4.3h34.4c2.4,0,4.3,1.9,4.3,4.3
	V76.4z"/>
<path class="st0" d="M65.9,30.6c-0.8,0-1.4,0.6-1.4,1.4v44.4c0,0.8,0.6,1.4,1.4,1.4c0.8,0,1.4-0.6,1.4-1.4V32
	C67.3,31.2,66.7,30.6,65.9,30.6z"/>
<path class="st0" d="M77.4,33.4c-0.8,0-1.4,0.6-1.4,1.4v38.7c0,0.8,0.6,1.4,1.4,1.4s1.4-0.6,1.4-1.4V34.9
	C78.8,34.1,78.1,33.4,77.4,33.4z"/>
<path class="st0" d="M54.4,33.4c-0.8,0-1.4,0.6-1.4,1.4v38.7c0,0.8,0.6,1.4,1.4,1.4c0.8,0,1.4-0.6,1.4-1.4V34.9
	C55.9,34.1,55.2,33.4,54.4,33.4z"/>
</svg>
