<?xml version="1.0" encoding="utf-8"?>
<!-- Generator: Adobe Illustrator 27.4.0, SVG Export Plug-In . SVG Version: 6.00 Build 0)  -->
<svg version="1.1" id="圖層_1" xmlns="http://www.w3.org/2000/svg" xmlns:xlink="http://www.w3.org/1999/xlink" x="0px" y="0px"
	 viewBox="0 0 30 30" style="enable-background:new 0 0 30 30;" xml:space="preserve">
<style type="text/css">
	.st0{display:none;}
	.st1{display:inline;fill:#F4DF87;}
	.st2{display:inline;}
	.st3{fill:#F4DF87;}
	.st4{fill:#5E7644;}
</style>
<g id="圖層_1_00000176724779931219136980000009922691352047462538_" class="st0">
	<path class="st1" d="M21.3,8.3h-2.9V3h1c0.3,0,0.5-0.2,0.5-0.5V1.1c0-0.3-0.2-0.5-0.5-0.5h-7.7c-0.3,0-0.5,0.2-0.5,0.5v1.4
		c0,0.3,0.2,0.5,0.5,0.5h1v5.3H9.8c-1.3,0-2.4,1.1-2.4,2.4v14.8c0,1.3,1.1,2.4,2.4,2.4v1c0,0.3,0.2,0.5,0.5,0.5h1.9
		c0.3,0,0.5-0.2,0.5-0.5v-1h5.7v1c0,0.3,0.2,0.5,0.5,0.5h1.9c0.3,0,0.5-0.2,0.5-0.5v-1c1.3,0,2.4-1.1,2.4-2.4V10.7
		C23.7,9.3,22.6,8.3,21.3,8.3z M12.3,1.6H19v0.5h-6.7V1.6z M13.7,3h3.8v5.3h-3.8V3z M11.8,28.4h-1v-0.5h1V28.4z M20.4,28.4h-1v-0.5
		h1V28.4z M22.8,25.5c0,0.8-0.6,1.4-1.4,1.4H9.8c-0.8,0-1.4-0.6-1.4-1.4V10.7c0-0.8,0.6-1.4,1.4-1.4h11.5c0.8,0,1.4,0.6,1.4,1.4
		C22.8,10.7,22.8,25.5,22.8,25.5z"/>
	<path class="st1" d="M15.6,10.2c-0.3,0-0.5,0.2-0.5,0.5v14.8c0,0.3,0.2,0.5,0.5,0.5s0.5-0.2,0.5-0.5V10.7
		C16.1,10.4,15.9,10.2,15.6,10.2z"/>
	<path class="st1" d="M19.4,11.2c-0.3,0-0.5,0.2-0.5,0.5v12.9c0,0.3,0.2,0.5,0.5,0.5s0.5-0.2,0.5-0.5V11.7
		C19.9,11.4,19.7,11.2,19.4,11.2z"/>
	<path class="st1" d="M11.8,11.2c-0.3,0-0.5,0.2-0.5,0.5v12.9c0,0.3,0.2,0.5,0.5,0.5s0.5-0.2,0.5-0.5V11.7
		C12.3,11.4,12,11.2,11.8,11.2z"/>
</g>
<g id="圖層_2_00000163765104571415142620000010501313610449787296_" class="st0">
	<g class="st2">
		<path class="st3" d="M10.7,11v0.5c0,0.2,0.2,0.4,0.4,0.4s0.4-0.2,0.4-0.4V11c0-0.2-0.2-0.4-0.4-0.4S10.7,10.8,10.7,11z"/>
		<path class="st3" d="M14.1,12.8c0.1,0,0.1,0.1,0.2,0.1c0.1,0,0.3-0.1,0.4-0.2l0.3-0.4c0.1-0.2,0.1-0.5-0.1-0.6
			c-0.2-0.1-0.5-0.1-0.6,0.1L14,12.2C13.8,12.4,13.9,12.6,14.1,12.8L14.1,12.8z"/>
		<path class="st3" d="M16.6,15.1c0.1,0,0.1,0,0.2-0.1l0.4-0.3c0.2-0.1,0.3-0.4,0.1-0.6c-0.1-0.2-0.4-0.3-0.6-0.1l-0.4,0.3
			c-0.2,0.1-0.3,0.4-0.1,0.6S16.5,15.1,16.6,15.1L16.6,15.1z"/>
		<path class="st3" d="M5.3,14.1C5.1,14,4.8,14,4.7,14.2c-0.1,0.2-0.1,0.5,0.1,0.6c0.4,0.2,0.5,0.3,0.6,0.3s0.3-0.1,0.4-0.2
			c0.2-0.2,0.2-0.4,0-0.5L5.3,14.1z"/>
		<path class="st3" d="M7.6,12.6c0.1,0.1,0.2,0.2,0.4,0.2c0.1,0,0.1,0,0.2-0.1c0.2-0.1,0.3-0.4,0.1-0.6L8,11.8
			c-0.1-0.2-0.4-0.3-0.6-0.1c-0.2,0.1-0.3,0.4-0.1,0.6L7.6,12.6z"/>
		<path class="st3" d="M4.7,25.7H1.3c-0.2,0-0.4,0.2-0.4,0.4s0.2,0.4,0.4,0.4h3.4c0.2,0,0.4-0.2,0.4-0.4C5.1,25.9,4.9,25.7,4.7,25.7
			z"/>
		<path class="st3" d="M28.7,25.7H6.6c-0.2,0-0.4,0.2-0.4,0.4s0.2,0.4,0.4,0.4h22.1c0.2,0,0.4-0.2,0.4-0.4
			C29.1,25.9,28.9,25.7,28.7,25.7L28.7,25.7z"/>
		<path class="st3" d="M3.8,9C4,9.1,4.2,9.1,4.4,8.9c0.1-0.1,0.2-0.1,0.3-0.1S4.9,8.9,5,9s0.2,0.2,0.4,0.2S5.7,9.1,5.8,9
			C5.9,8.9,6,8.8,6.1,8.8s0.2,0.1,0.3,0.1C6.6,9.1,6.8,9.1,7,9s0.2-0.4,0.1-0.6C6.8,8.1,6.5,8,6.2,8C5.9,8,5.6,8.1,5.4,8.2
			C5.2,8.1,5,8,4.7,8C4.3,8,4,8.1,3.8,8.4C3.6,8.6,3.6,8.8,3.8,9z"/>
		<path class="st3" d="M10.5,4.5c0.2,0.1,0.4,0.1,0.6-0.1c0.1-0.1,0.2-0.1,0.3-0.1s0.2,0.1,0.3,0.2s0.2,0.2,0.4,0.2s0.3-0.1,0.4-0.2
			c0.1-0.1,0.2-0.2,0.3-0.2s0.2,0.1,0.3,0.1c0.1,0.2,0.4,0.2,0.6,0.1c0.1-0.1,0.2-0.4,0-0.6c-0.2-0.3-0.6-0.4-0.9-0.4
			c-0.3,0-0.5,0.1-0.7,0.2c-0.2-0.2-0.5-0.2-0.7-0.2c-0.4,0-0.7,0.2-0.9,0.4C10.3,4.1,10.4,4.3,10.5,4.5L10.5,4.5z"/>
		<path class="st3" d="M28.7,23.1h-10c0.5-0.7,1.3-1.1,2.1-1.1h0.1c0.4,0,0.7,0,1-0.1c0.4,0.4,0.9,0.6,1.5,0.6
			c1.1,0,1.9-0.9,1.9-1.9c1.1-0.1,2.2,0.1,3.2,0.6c0.1,0,0.1,0.1,0.2,0.1c0.2,0,0.3-0.1,0.4-0.2c0.1-0.2,0-0.5-0.2-0.5
			c-0.6-0.3-1.1-0.5-1.7-0.6c0.2-0.6,0.2-1.1,0.3-1.7h1.3c0.2,0,0.4-0.2,0.4-0.4c0-0.2-0.2-0.4-0.4-0.4h-1.2c0-0.8-0.1-1.7-0.4-2.5
			c-0.4-1.6-1.3-3.2-2.4-4.6L28,9.6c0.2-0.1,0.4-0.2,0.4-0.4c0.1-0.2,0.1-0.4-0.1-0.5c-0.6-1.1-1.8-1.7-3-1.6L25.9,5
			c0.1-0.2,0-0.4-0.1-0.5s-0.3-0.2-0.4-0.2c-1.3,0-2.5,0.7-3.1,1.8C22.2,6,22,5.9,21.9,5.8c-0.2-0.1-0.4-0.1-0.6,0.1
			c-0.1,0.2-0.1,0.4,0.1,0.6c0.2,0.1,0.3,0.2,0.5,0.4L22,7c-0.1,0.4-0.1,0.8,0,1.2c-0.3-0.2-0.6-0.4-0.9-0.6
			c-0.5-0.6-1.2-1.1-1.9-1.5C19.4,6,19.6,6,19.8,6s0.4-0.2,0.4-0.4C20.2,5.2,20,5,19.8,5l0,0c-0.6,0-1.1,0.1-1.6,0.4
			c-0.2,0.1-0.3,0.3-0.3,0.5s0.2,0.4,0.4,0.5c0.5,0.2,0.9,0.4,1.4,0.8c-1.1,0.1-2.2,0.7-2.7,1.7c-0.1,0.2-0.1,0.3,0,0.5
			s0.2,0.3,0.4,0.3l2.1,0.5c-0.6,1-0.7,2.3-0.1,3.4c0.1,0.2,0.3,0.3,0.5,0.3H20c0.2,0,0.3-0.1,0.4-0.2l2.4-2.5
			c1.2,1.9,1.6,3.9,1.4,6.1H16c-0.3-2.4-2.4-4.2-4.9-4.2s-4.5,1.8-4.9,4.2H1.3c-0.2,0-0.4,0.2-0.4,0.4c0,0.2,0.2,0.4,0.4,0.4H24
			c0,0.2-0.1,0.4-0.1,0.5c-0.2-0.1-0.4-0.1-0.5-0.1c-1.1,0-1.9,0.9-1.9,1.9c0,0.2,0,0.4,0.1,0.6c-0.2,0.1-0.4,0.1-0.6,0.1h-0.1
			c-1.3,0-2.5,0.7-3.1,1.9h-1.1c-0.2,0-0.4,0.2-0.4,0.4s0.2,0.4,0.4,0.4h12c0.2,0,0.4-0.2,0.4-0.4C29.1,23.2,28.9,23.1,28.7,23.1
			L28.7,23.1z M11.1,13.8c2,0,3.7,1.5,4,3.4h-8C7.4,15.3,9.1,13.8,11.1,13.8L11.1,13.8z M25,4.8L24.3,7c-0.6,0.2-1.1,0.5-1.5,1
			c-0.1-0.4-0.1-0.8,0-1.3l0,0V6.6C23.2,5.6,24,5,25,4.8L25,4.8z M20.4,8c0.5,0.1,0.9,0.4,1.2,0.7C21,8.8,20.5,9.1,20,9.5L17.8,9
			C18.4,8.2,19.4,7.8,20.4,8L20.4,8z M19.9,12.9c-0.4-0.9-0.2-1.9,0.5-2.7c0.5-0.5,1.2-0.8,2-0.8l0,0l0,0c0.3,0,0.6-0.2,0.7-0.4l0,0
			l0,0c0.3-0.7,0.9-1.2,1.6-1.3c1-0.2,2,0.1,2.6,0.9L23,9.7c-0.1,0-0.1,0.1-0.2,0.1L19.9,12.9z M24.9,17.8
			C24.9,17.7,24.9,17.7,24.9,17.8c0.3-2.6-0.2-5-1.6-7.2l0.2-0.2l0.3-0.1c1.2,1.4,2.1,3,2.5,4.6s0.4,3.3,0,4.8c-0.4,0-0.7,0-1.1,0
			c-0.1-0.3-0.3-0.5-0.5-0.7C24.7,18.6,24.8,18.2,24.9,17.8L24.9,17.8z M23.3,19.4c0.6,0,1.1,0.5,1.1,1.1s-0.5,1.1-1.1,1.1
			s-1.1-0.5-1.1-1.1C22.2,19.9,22.7,19.4,23.3,19.4z"/>
		<path class="st3" d="M14.4,19.6c0-0.2-0.2-0.4-0.4-0.4H8.2c-0.2,0-0.4,0.2-0.4,0.4C7.8,19.8,8,20,8.2,20H14
			C14.2,20,14.4,19.8,14.4,19.6z"/>
		<path class="st3" d="M13.4,21.2c0-0.2-0.2-0.4-0.4-0.4H9.3c-0.2,0-0.4,0.2-0.4,0.4s0.2,0.4,0.4,0.4H13
			C13.2,21.6,13.4,21.4,13.4,21.2z"/>
		<path class="st3" d="M10.3,22.4c-0.2,0-0.4,0.2-0.4,0.4s0.2,0.4,0.4,0.4h1.5c0.2,0,0.4-0.2,0.4-0.4s-0.2-0.4-0.4-0.4H10.3z"/>
	</g>
</g>
<g id="圖層_3">
	<g>
		<path class="st4" d="M28.6,11.8c0.2,0,0.4-0.2,0.4-0.4V8.6c0-1-0.8-1.8-1.8-1.8h-2.6V4.5c0.4-0.2,0.7-0.6,0.7-1.1V2.7
			c0-1.4-1.1-2.5-2.5-2.5h-2.3c-1.4,0-2.5,1.1-2.5,2.5v0.7c0,0.5,0.3,0.9,0.7,1.1v2.3h-2.5c-1,0-1.8,0.8-1.8,1.8v3.8h-2.7v-0.7
			c0-1.1-0.9-1.9-1.9-1.9s-1.9,0.9-1.9,1.9v0.7H4.6C3.7,12.4,3,13.1,3,14v5.4c0,0.2,0.2,0.4,0.4,0.4s0.4-0.2,0.4-0.4V18
			c0.2,0.1,0.5,0.2,0.8,0.2h0.6v0.5c-0.4,0-0.7,0.4-0.7,0.8v0.4c0,0.4,0.4,0.8,0.8,0.8h2.2c0.4,0,0.8-0.4,0.8-0.8v-0.4
			c0-0.4-0.3-0.8-0.7-0.8v-0.4h4.8v0.5c-0.4,0-0.7,0.4-0.7,0.8V20c0,0.4,0.4,0.8,0.8,0.8h2.2c0.4,0,0.8-0.4,0.8-0.8v-0.4
			c0-0.4-0.3-0.8-0.7-0.8v-0.5h0.6c0.3,0,0.6-0.1,0.8-0.2v9.7c0,0.4-0.4,0.8-0.8,0.8H4.6c-0.4,0-0.8-0.4-0.8-0.8v-6.3
			c0-0.2-0.2-0.4-0.4-0.4C3.2,21,3,21.2,3,21.5v0.4H2.6c-0.9,0-1.6,0.7-1.6,1.6V26c0,0.9,0.7,1.6,1.6,1.6H3v0.1
			c0,0.9,0.7,1.6,1.6,1.6h10.6c0.9,0,1.6-0.7,1.6-1.6v-0.1h0.4v0.5c0,0.6,0.5,1.2,1.2,1.2s1.2-0.5,1.2-1.2v-0.8h4.6v0.8
			c0,0.6,0.5,1.2,1.2,1.2s1.2-0.5,1.2-1.2v-0.8h0.8c1,0,1.8-0.8,1.8-1.8V13.3c0-0.2-0.2-0.4-0.4-0.4c-0.2,0-0.4,0.2-0.4,0.4v12.3
			c0,0.5-0.4,1-1,1H19c0.1-0.2,0.1-0.4,0.1-0.5v-2.5c0-0.5-0.2-0.9-0.5-1.2V9.2c0-0.2-0.2-0.4-0.4-0.4c-0.2,0-0.4,0.2-0.4,0.4v12.7
			c-0.1,0-0.2,0-0.2,0h-0.4v-7.8c0-0.8-0.6-1.5-1.4-1.6V8.6c0-0.5,0.4-1,1-1h10.8c0.5,0,1,0.4,1,1v2.7
			C28.2,11.6,28.4,11.8,28.6,11.8L28.6,11.8z M2.6,26.8c-0.4,0-0.8-0.4-0.8-0.8v-2.5c0-0.4,0.4-0.8,0.8-0.8H3v4.1L2.6,26.8L2.6,26.8
			z M13.8,17.8L13.8,17.8L13.8,17.8v0.9h-0.6v-5.4h0.6V17.8z M8.9,11.7c0-0.6,0.5-1.1,1.1-1.1s1.1,0.5,1.1,1.1v0.7H8.8L8.9,11.7
			L8.9,11.7z M6.7,18.7H6.1v-5.4h0.6V18.7z M4.6,17.4c-0.4,0-0.8-0.4-0.8-0.8v-2.5c0-0.4,0.4-0.8,0.8-0.8h0.6v4.1H4.6L4.6,17.4z
			 M7.4,19.9H5.3v-0.3h2.1V19.9L7.4,19.9z M7.5,17.4v-4.1h4.8v4.1H7.5z M14.5,19.9h-2.1v-0.3h2.1V19.9z M18.7,28.2
			c0,0.2-0.1,0.3-0.3,0.3S18,28.4,18,28.2v-0.7c0,0,0,0,0.1,0h0.6C18.7,27.4,18.7,28.2,18.7,28.2z M25.6,28.2c0,0.2-0.1,0.3-0.3,0.3
			c-0.2,0-0.3-0.1-0.3-0.3v-0.8h0.6L25.6,28.2L25.6,28.2z M17.2,22.7c0.4,0,0.8,0.4,0.8,0.8V26c0,0.4-0.4,0.8-0.8,0.8h-0.4v-4.1
			L17.2,22.7L17.2,22.7z M16,14.1v2.5c0,0.4-0.4,0.8-0.8,0.8h-0.6v-4.1h0.6C15.6,13.3,16,13.7,16,14.1L16,14.1z M19,2.7
			c0-0.9,0.7-1.6,1.6-1.6h2.3c0.9,0,1.6,0.7,1.6,1.6v0.7c0,0.2-0.1,0.3-0.3,0.3S24,3.6,24,3.4V2.7c0-0.6-0.5-1-1-1h-2.3
			c-0.6,0-1,0.5-1,1v0.7c0,0.2-0.1,0.3-0.3,0.3S19,3.6,19,3.4V2.7L19,2.7z M19.8,4.5c0.4-0.2,0.7-0.6,0.7-1.1V2.7
			c0-0.1,0.1-0.2,0.2-0.2H23c0.1,0,0.2,0.1,0.2,0.2v0.7c0,0.5,0.3,0.9,0.7,1.1v2.3h-4.1L19.8,4.5L19.8,4.5z"/>
		<path class="st4" d="M20.1,9.2v15c0,0.2,0.2,0.4,0.4,0.4c0.2,0,0.4-0.2,0.4-0.4v-15c0-0.2-0.2-0.4-0.4-0.4
			C20.3,8.8,20.1,9,20.1,9.2z"/>
		<path class="st4" d="M22.7,9.2v15c0,0.2,0.2,0.4,0.4,0.4c0.2,0,0.4-0.2,0.4-0.4v-15c0-0.2-0.2-0.4-0.4-0.4
			C22.9,8.8,22.7,9,22.7,9.2z"/>
		<path class="st4" d="M25.3,9.2v15c0,0.2,0.2,0.4,0.4,0.4c0.2,0,0.4-0.2,0.4-0.4v-15c0-0.2-0.2-0.4-0.4-0.4
			C25.5,8.8,25.3,9,25.3,9.2z"/>
		<path class="st4" d="M13.5,27c0.6,0,1-0.5,1-1v-3.1c0-0.6-0.5-1-1-1H6.4c-0.6,0-1,0.5-1,1V26c0,0.6,0.5,1,1,1H13.5z M6.2,26v-3.1
			c0-0.1,0.1-0.2,0.2-0.2h7.1c0.1,0,0.2,0.1,0.2,0.2V26c0,0.1-0.1,0.2-0.2,0.2H6.4C6.3,26.2,6.2,26.1,6.2,26z"/>
	</g>
</g>
</svg>
