<?xml version="1.0" encoding="utf-8"?>
<!-- Generator: Adobe Illustrator 25.4.1, SVG Export Plug-In . SVG Version: 6.00 Build 0)  -->
<svg version="1.1" id="Capa_1" xmlns="http://www.w3.org/2000/svg" xmlns:xlink="http://www.w3.org/1999/xlink" x="0px" y="0px"
	 viewBox="0 0 130 90" style="enable-background:new 0 0 130 90;" xml:space="preserve">
<style type="text/css">
	.st0{fill:#F4DF87;}
</style>
<g>
	<path class="st0" d="M105.8,35.5c0.7,0,1.3-0.6,1.3-1.3v-8.1c0-3-2.4-5.4-5.4-5.4H94v-7c1.3-0.5,2.2-1.7,2.2-3.2V8.4
		c0-4.1-3.3-7.4-7.4-7.4h-6.8c-4.1,0-7.4,3.3-7.4,7.4v2.1c0,1.5,0.9,2.7,2.2,3.2v7h-7.6c-3,0-5.4,2.4-5.4,5.4v11.5h-8.2v-2.1
		c0-3.2-2.6-5.8-5.8-5.8c-3.2,0-5.8,2.6-5.8,5.8v2.1H33.7c-2.7,0-4.9,2.2-4.9,4.9v16.2c0,0.7,0.6,1.3,1.3,1.3s1.3-0.6,1.3-1.3v-4.2
		c0.7,0.4,1.5,0.6,2.4,0.6h1.7v1.4c-1.2,0.1-2.2,1.1-2.2,2.4V60c0,1.3,1.1,2.4,2.4,2.4h6.5c1.3,0,2.4-1.1,2.4-2.4v-1.3
		c0-1.2-1-2.3-2.2-2.4V55h14.3v1.4c-1.2,0.1-2.2,1.1-2.2,2.4v1.3c0,1.3,1.1,2.4,2.4,2.4h6.5c1.3,0,2.4-1.1,2.4-2.4v-1.3
		c0-1.2-1-2.3-2.2-2.4V55h1.7c0.9,0,1.7-0.2,2.4-0.6v29.2c0,1.3-1.1,2.4-2.4,2.4H33.7c-1.3,0-2.4-1.1-2.4-2.4v-19
		c0-0.7-0.6-1.3-1.3-1.3s-1.3,0.6-1.3,1.3v1.3h-1.2c-2.7,0-4.9,2.2-4.9,4.9v7.5c0,2.7,2.2,4.9,4.9,4.9h1.2v0.3
		c0,2.7,2.2,4.9,4.9,4.9h31.7c2.7,0,4.9-2.2,4.9-4.9v-0.3h1.1v1.6c0,1.9,1.6,3.5,3.5,3.5c1.9,0,3.5-1.6,3.5-3.5v-2.3h13.8v2.3
		c0,1.9,1.6,3.5,3.5,3.5c1.9,0,3.5-1.6,3.5-3.5v-2.3h2.3c3,0,5.4-2.4,5.4-5.4V40.2c0-0.7-0.6-1.3-1.3-1.3c-0.7,0-1.3,0.6-1.3,1.3
		v36.9c0,1.6-1.3,2.9-2.9,2.9H76.2c0.2-0.5,0.3-1.1,0.3-1.6v-7.5c0-1.5-0.6-2.8-1.6-3.7V27.8c0-0.7-0.6-1.3-1.3-1.3
		s-1.3,0.6-1.3,1.3V66c-0.2,0-0.5-0.1-0.7-0.1h-1.2V42.5c0-2.5-1.8-4.5-4.2-4.9V26.1c0-1.6,1.3-2.9,2.9-2.9h32.5
		c1.6,0,2.9,1.3,2.9,2.9v8.1C104.5,34.9,105,35.5,105.8,35.5L105.8,35.5z M27.6,80.7c-1.3,0-2.4-1.1-2.4-2.4v-7.5
		c0-1.3,1.1-2.4,2.4-2.4h1.2v12.2L27.6,80.7L27.6,80.7z M61.1,53.7L61.1,53.7C61.1,53.7,61.1,53.7,61.1,53.7v2.7h-1.8V40.1h1.8V53.7
		z M46.4,35.4c0-1.8,1.5-3.2,3.2-3.2s3.2,1.5,3.2,3.2v2.1h-6.5L46.4,35.4L46.4,35.4z M39.9,56.3h-1.8V40.1h1.8V56.3z M33.7,52.4
		c-1.3,0-2.4-1.1-2.4-2.4v-7.6c0-1.3,1.1-2.4,2.4-2.4h1.7v12.3L33.7,52.4L33.7,52.4z M42,59.9h-6.2v-1h6.2L42,59.9L42,59.9z
		 M42.4,52.4V40.1h14.3v12.3H42.4z M63.3,59.9h-6.2v-1h6.2V59.9z M75.9,84.9c0,0.5-0.4,0.9-0.9,0.9s-1-0.4-1-0.9v-2.2
		c0.1,0,0.1-0.1,0.2-0.1h1.7V84.9z M96.7,84.9c0,0.5-0.4,1-1,1c-0.5,0-1-0.4-1-1v-2.3h1.9V84.9L96.7,84.9z M71.6,68.5
		c1.3,0,2.4,1.1,2.4,2.4v7.5c0,1.3-1.1,2.4-2.4,2.4h-1.2V68.5L71.6,68.5L71.6,68.5z M67.8,42.5v7.6c0,1.3-1.1,2.4-2.4,2.4h-1.7V40.1
		h1.7C66.7,40.1,67.8,41.2,67.8,42.5L67.8,42.5z M77,8.3c0-2.7,2.2-4.9,4.9-4.9h6.8c2.7,0,4.9,2.2,4.9,4.9v2.1
		c0,0.5-0.4,0.9-0.9,0.9s-0.9-0.4-0.9-0.9V8.3c0-1.7-1.4-3.1-3.1-3.1h-6.8c-1.7,0-3.1,1.4-3.1,3.1v2.1c0,0.5-0.4,0.9-0.9,0.9
		S77,10.9,77,10.4L77,8.3L77,8.3z M79.2,13.6c1.3-0.5,2.2-1.7,2.2-3.2V8.4c0-0.3,0.2-0.5,0.5-0.5h6.8c0.3,0,0.5,0.2,0.5,0.5v2.1
		c0,1.5,0.9,2.7,2.2,3.2v7H79.2L79.2,13.6L79.2,13.6z"/>
	<path class="st0" d="M80.1,27.8v45.1c0,0.7,0.6,1.3,1.3,1.3c0.7,0,1.3-0.6,1.3-1.3V27.8c0-0.7-0.6-1.3-1.3-1.3
		C80.7,26.5,80.1,27.1,80.1,27.8z"/>
	<path class="st0" d="M88,27.8v45.1c0,0.7,0.6,1.3,1.3,1.3s1.3-0.6,1.3-1.3V27.8c0-0.7-0.6-1.3-1.3-1.3S88,27.1,88,27.8z"/>
	<path class="st0" d="M95.8,27.8v45.1c0,0.7,0.6,1.3,1.3,1.3s1.3-0.6,1.3-1.3V27.8c0-0.7-0.6-1.3-1.3-1.3S95.8,27.1,95.8,27.8z"/>
	<path class="st0" d="M60.2,81.3c1.7,0,3.1-1.4,3.1-3.1v-9.4c0-1.7-1.4-3.1-3.1-3.1H39c-1.7,0-3.1,1.4-3.1,3.1v9.4
		c0,1.7,1.4,3.1,3.1,3.1H60.2z M38.4,78.2v-9.4c0-0.3,0.2-0.5,0.5-0.5h21.3c0.3,0,0.5,0.2,0.5,0.5v9.4c0,0.3-0.2,0.5-0.5,0.5H39
		C38.7,78.8,38.4,78.5,38.4,78.2z"/>
</g>
</svg>
